%TF.GenerationSoftware,KiCad,Pcbnew,10.0.6*%
%TF.CreationDate,2026-09-21T23:46:50-07:00*%
%TF.ProjectId,pedal,70656461-6c2e-46b6-9963-61645f706362,rev?*%
%TF.SameCoordinates,Original*%
%TF.FileFunction,Soldermask,Bot*%
%TF.FilePolarity,Negative*%
%FSLAX46Y46*%
G04 Gerber Fmt 4.6, Leading zero omitted, Abs format (unit mm)*
G04 Created by KiCad (PCBNEW 10.0.6) date 2026-09-21 23:46:50*
%MOMM*%
%LPD*%
G01*
G04 APERTURE LIST*
G04 Aperture macros list*
%AMRoundRect*
0 Rectangle with rounded corners*
0 $1 Rounding radius*
0 $2 $3 $4 $5 $6 $7 $8 $9 X,Y pos of 4 corners*
0 Add a 4 corners polygon primitive as box body*
4,1,4,$2,$3,$4,$5,$6,$7,$8,$9,$2,$3,0*
0 Add four circle primitives for the rounded corners*
1,1,$1+$1,$2,$3*
1,1,$1+$1,$4,$5*
1,1,$1+$1,$6,$7*
1,1,$1+$1,$8,$9*
0 Add four rect primitives between the rounded corners*
20,1,$1+$1,$2,$3,$4,$5,0*
20,1,$1+$1,$4,$5,$6,$7,0*
20,1,$1+$1,$6,$7,$8,$9,0*
20,1,$1+$1,$8,$9,$2,$3,0*%
G04 Aperture macros list end*
%ADD10R,1.800000X1.800000*%
%ADD11C,1.800000*%
%ADD12RoundRect,0.250000X-0.550000X-0.550000X0.550000X-0.550000X0.550000X0.550000X-0.550000X0.550000X0*%
%ADD13C,1.600000*%
%ADD14C,3.200000*%
%ADD15RoundRect,0.250000X-0.600000X-0.750000X0.600000X-0.750000X0.600000X0.750000X-0.600000X0.750000X0*%
%ADD16O,1.700000X2.000000*%
%ADD17O,2.720000X3.240000*%
%ADD18R,1.600000X1.600000*%
%ADD19C,3.000000*%
%ADD20R,1.700000X1.700000*%
%ADD21C,1.700000*%
%ADD22R,3.500000X3.500000*%
%ADD23RoundRect,0.750000X-1.000000X0.750000X-1.000000X-0.750000X1.000000X-0.750000X1.000000X0.750000X0*%
%ADD24RoundRect,0.875000X-0.875000X0.875000X-0.875000X-0.875000X0.875000X-0.875000X0.875000X0.875000X0*%
G04 APERTURE END LIST*
D10*
%TO.C,D24*%
X74000000Y-71500000D03*
D11*
X76540000Y-71500000D03*
%TD*%
D12*
%TO.C,C501*%
X87440000Y-40840000D03*
D13*
X89940000Y-40840000D03*
%TD*%
D12*
%TO.C,C503*%
X102820000Y-40840000D03*
D13*
X105320000Y-40840000D03*
%TD*%
D10*
%TO.C,D21*%
X14000000Y-71500000D03*
D11*
X16540000Y-71500000D03*
%TD*%
D14*
%TO.C,H3*%
X4000000Y-98000000D03*
%TD*%
D10*
%TO.C,D23*%
X54000000Y-71500000D03*
D11*
X56540000Y-71500000D03*
%TD*%
D12*
%TO.C,C505*%
X118190000Y-40840000D03*
D13*
X120690000Y-40840000D03*
%TD*%
D12*
%TO.C,C401*%
X63570000Y-30290000D03*
D13*
X65570000Y-30290000D03*
%TD*%
D15*
%TO.C,J13*%
X44000000Y-97500000D03*
D16*
X46500000Y-97500000D03*
%TD*%
D17*
%TO.C,RV3*%
X49700000Y-57500000D03*
X59300000Y-57500000D03*
D10*
X52000000Y-65000000D03*
D11*
X54500000Y-65000000D03*
X57000000Y-65000000D03*
%TD*%
D15*
%TO.C,J15*%
X76000000Y-97500000D03*
D16*
X78500000Y-97500000D03*
%TD*%
D18*
%TO.C,SW2*%
X137460000Y-65000000D03*
D13*
X140000000Y-65000000D03*
X142540000Y-65000000D03*
%TD*%
D12*
%TO.C,C301*%
X50790000Y-30290000D03*
D13*
X52790000Y-30290000D03*
%TD*%
D19*
%TO.C,J3*%
X62000000Y-12850000D03*
X45770000Y-12850000D03*
X62000000Y-19200000D03*
X45770000Y-19200000D03*
X62000000Y-6500000D03*
X45770000Y-6500000D03*
%TD*%
D14*
%TO.C,H2*%
X146000000Y-4000000D03*
%TD*%
D15*
%TO.C,J14*%
X60000000Y-97500000D03*
D16*
X62500000Y-97500000D03*
%TD*%
D20*
%TO.C,U1*%
X24000000Y-91240000D03*
D21*
X26540000Y-91240000D03*
X29080000Y-91240000D03*
X31620000Y-91240000D03*
X34160000Y-91240000D03*
X36700000Y-91240000D03*
X39240000Y-91240000D03*
X41780000Y-91240000D03*
X44320000Y-91240000D03*
X46860000Y-91240000D03*
X49400000Y-91240000D03*
X51940000Y-91240000D03*
X54480000Y-91240000D03*
X57020000Y-91240000D03*
X59560000Y-91240000D03*
X62100000Y-91240000D03*
X64640000Y-91240000D03*
X67180000Y-91240000D03*
X69720000Y-91240000D03*
X72260000Y-91240000D03*
X72260000Y-76000000D03*
X69720000Y-76000000D03*
X67180000Y-76000000D03*
X64640000Y-76000000D03*
X62100000Y-76000000D03*
X59560000Y-76000000D03*
X57020000Y-76000000D03*
X54480000Y-76000000D03*
X51940000Y-76000000D03*
X49400000Y-76000000D03*
X46860000Y-76000000D03*
X44320000Y-76000000D03*
X41780000Y-76000000D03*
X39240000Y-76000000D03*
X36700000Y-76000000D03*
X34160000Y-76000000D03*
X31620000Y-76000000D03*
X29080000Y-76000000D03*
X26540000Y-76000000D03*
X24000000Y-76000000D03*
%TD*%
D17*
%TO.C,RV4*%
X69700000Y-57500000D03*
X79300000Y-57500000D03*
D10*
X72000000Y-65000000D03*
D11*
X74500000Y-65000000D03*
X77000000Y-65000000D03*
%TD*%
D12*
%TO.C,C204*%
X24960000Y-30290000D03*
D13*
X26960000Y-30290000D03*
%TD*%
D10*
%TO.C,D25*%
X94000000Y-71500000D03*
D11*
X96540000Y-71500000D03*
%TD*%
D12*
%TO.C,C201*%
X18570000Y-30290000D03*
D13*
X20570000Y-30290000D03*
%TD*%
D17*
%TO.C,RV2*%
X29700000Y-57500000D03*
X39300000Y-57500000D03*
D10*
X32000000Y-65000000D03*
D11*
X34500000Y-65000000D03*
X37000000Y-65000000D03*
%TD*%
D12*
%TO.C,C104*%
X12180000Y-30290000D03*
D13*
X14180000Y-30290000D03*
%TD*%
D14*
%TO.C,H4*%
X146000000Y-98000000D03*
%TD*%
D20*
%TO.C,J6*%
X133240000Y-68000000D03*
D21*
X133240000Y-70540000D03*
X133240000Y-73080000D03*
X133240000Y-75620000D03*
X133240000Y-78160000D03*
X133240000Y-80700000D03*
X133240000Y-83240000D03*
X133240000Y-85780000D03*
%TD*%
D17*
%TO.C,RV5*%
X89700000Y-57500000D03*
X99300000Y-57500000D03*
D10*
X92000000Y-65000000D03*
D11*
X94500000Y-65000000D03*
X97000000Y-65000000D03*
%TD*%
D12*
%TO.C,C101*%
X5790000Y-30290000D03*
D13*
X7790000Y-30290000D03*
%TD*%
D12*
%TO.C,C303*%
X57180000Y-30290000D03*
D13*
X59180000Y-30290000D03*
%TD*%
D17*
%TO.C,RV6*%
X109700000Y-57500000D03*
X119300000Y-57500000D03*
D10*
X112000000Y-65000000D03*
D11*
X114500000Y-65000000D03*
X117000000Y-65000000D03*
%TD*%
D15*
%TO.C,J12*%
X28000000Y-97500000D03*
D16*
X30500000Y-97500000D03*
%TD*%
D20*
%TO.C,J5*%
X118000000Y-68000000D03*
D21*
X118000000Y-70540000D03*
X118000000Y-73080000D03*
X118000000Y-75620000D03*
X118000000Y-78160000D03*
X118000000Y-80700000D03*
X118000000Y-83240000D03*
X118000000Y-85780000D03*
%TD*%
D15*
%TO.C,J11*%
X12000000Y-97500000D03*
D16*
X14500000Y-97500000D03*
%TD*%
D10*
%TO.C,D22*%
X34000000Y-71500000D03*
D11*
X36540000Y-71500000D03*
%TD*%
D12*
%TO.C,C403*%
X69960000Y-30290000D03*
D13*
X71960000Y-30290000D03*
%TD*%
D12*
%TO.C,C502*%
X95130000Y-40840000D03*
D13*
X97630000Y-40840000D03*
%TD*%
D18*
%TO.C,SW1*%
X137460000Y-54000000D03*
D13*
X140000000Y-54000000D03*
X142540000Y-54000000D03*
%TD*%
D17*
%TO.C,RV1*%
X9700000Y-57500000D03*
X19300000Y-57500000D03*
D10*
X12000000Y-65000000D03*
D11*
X14500000Y-65000000D03*
X17000000Y-65000000D03*
%TD*%
D12*
%TO.C,C504*%
X110510000Y-40840000D03*
D13*
X113010000Y-40840000D03*
%TD*%
D19*
%TO.C,J2*%
X30000000Y-12850000D03*
X13770000Y-12850000D03*
X30000000Y-19200000D03*
X13770000Y-19200000D03*
X30000000Y-6500000D03*
X13770000Y-6500000D03*
%TD*%
D22*
%TO.C,J1*%
X134000000Y-13500000D03*
D23*
X134000000Y-7500000D03*
D24*
X129300000Y-10500000D03*
%TD*%
D14*
%TO.C,H1*%
X4000000Y-4000000D03*
%TD*%
M02*
