%TF.GenerationSoftware,KiCad,Pcbnew,10.0.6*%
%TF.CreationDate,2026-09-21T23:46:50-07:00*%
%TF.ProjectId,pedal,70656461-6c2e-46b6-9963-61645f706362,rev?*%
%TF.SameCoordinates,Original*%
%TF.FileFunction,Copper,L1,Top*%
%TF.FilePolarity,Positive*%
%FSLAX46Y46*%
G04 Gerber Fmt 4.6, Leading zero omitted, Abs format (unit mm)*
G04 Created by KiCad (PCBNEW 10.0.6) date 2026-09-21 23:46:50*
%MOMM*%
%LPD*%
G01*
G04 APERTURE LIST*
G04 Aperture macros list*
%AMRoundRect*
0 Rectangle with rounded corners*
0 $1 Rounding radius*
0 $2 $3 $4 $5 $6 $7 $8 $9 X,Y pos of 4 corners*
0 Add a 4 corners polygon primitive as box body*
4,1,4,$2,$3,$4,$5,$6,$7,$8,$9,$2,$3,0*
0 Add four circle primitives for the rounded corners*
1,1,$1+$1,$2,$3*
1,1,$1+$1,$4,$5*
1,1,$1+$1,$6,$7*
1,1,$1+$1,$8,$9*
0 Add four rect primitives between the rounded corners*
20,1,$1+$1,$2,$3,$4,$5,0*
20,1,$1+$1,$4,$5,$6,$7,0*
20,1,$1+$1,$6,$7,$8,$9,0*
20,1,$1+$1,$8,$9,$2,$3,0*%
G04 Aperture macros list end*
%TA.AperFunction,SMDPad,CuDef*%
%ADD10RoundRect,0.250000X-0.262500X-0.450000X0.262500X-0.450000X0.262500X0.450000X-0.262500X0.450000X0*%
%TD*%
%TA.AperFunction,ComponentPad*%
%ADD11R,1.800000X1.800000*%
%TD*%
%TA.AperFunction,ComponentPad*%
%ADD12C,1.800000*%
%TD*%
%TA.AperFunction,ComponentPad*%
%ADD13RoundRect,0.250000X-0.550000X-0.550000X0.550000X-0.550000X0.550000X0.550000X-0.550000X0.550000X0*%
%TD*%
%TA.AperFunction,ComponentPad*%
%ADD14C,1.600000*%
%TD*%
%TA.AperFunction,SMDPad,CuDef*%
%ADD15RoundRect,0.250000X-0.250000X-0.475000X0.250000X-0.475000X0.250000X0.475000X-0.250000X0.475000X0*%
%TD*%
%TA.AperFunction,SMDPad,CuDef*%
%ADD16RoundRect,0.150000X-0.825000X-0.150000X0.825000X-0.150000X0.825000X0.150000X-0.825000X0.150000X0*%
%TD*%
%TA.AperFunction,SMDPad,CuDef*%
%ADD17RoundRect,0.150000X-0.512500X-0.150000X0.512500X-0.150000X0.512500X0.150000X-0.512500X0.150000X0*%
%TD*%
%TA.AperFunction,ComponentPad*%
%ADD18RoundRect,0.250000X-0.600000X-0.750000X0.600000X-0.750000X0.600000X0.750000X-0.600000X0.750000X0*%
%TD*%
%TA.AperFunction,ComponentPad*%
%ADD19O,1.700000X2.000000*%
%TD*%
%TA.AperFunction,ComponentPad*%
%ADD20O,2.720000X3.240000*%
%TD*%
%TA.AperFunction,ComponentPad*%
%ADD21R,1.600000X1.600000*%
%TD*%
%TA.AperFunction,ComponentPad*%
%ADD22C,3.000000*%
%TD*%
%TA.AperFunction,SMDPad,CuDef*%
%ADD23RoundRect,0.218750X-0.218750X-0.381250X0.218750X-0.381250X0.218750X0.381250X-0.218750X0.381250X0*%
%TD*%
%TA.AperFunction,SMDPad,CuDef*%
%ADD24RoundRect,0.250000X-0.312500X-0.625000X0.312500X-0.625000X0.312500X0.625000X-0.312500X0.625000X0*%
%TD*%
%TA.AperFunction,ComponentPad*%
%ADD25R,1.700000X1.700000*%
%TD*%
%TA.AperFunction,ComponentPad*%
%ADD26C,1.700000*%
%TD*%
%TA.AperFunction,SMDPad,CuDef*%
%ADD27RoundRect,0.250000X-1.000000X-0.650000X1.000000X-0.650000X1.000000X0.650000X-1.000000X0.650000X0*%
%TD*%
%TA.AperFunction,SMDPad,CuDef*%
%ADD28RoundRect,0.112500X-0.187500X-0.112500X0.187500X-0.112500X0.187500X0.112500X-0.187500X0.112500X0*%
%TD*%
%TA.AperFunction,SMDPad,CuDef*%
%ADD29RoundRect,0.250000X-0.312500X-1.450000X0.312500X-1.450000X0.312500X1.450000X-0.312500X1.450000X0*%
%TD*%
%TA.AperFunction,SMDPad,CuDef*%
%ADD30RoundRect,0.225000X-0.225000X-0.250000X0.225000X-0.250000X0.225000X0.250000X-0.225000X0.250000X0*%
%TD*%
%TA.AperFunction,SMDPad,CuDef*%
%ADD31R,2.350000X5.100000*%
%TD*%
%TA.AperFunction,ComponentPad*%
%ADD32R,3.500000X3.500000*%
%TD*%
%TA.AperFunction,ComponentPad*%
%ADD33RoundRect,0.750000X-1.000000X0.750000X-1.000000X-0.750000X1.000000X-0.750000X1.000000X0.750000X0*%
%TD*%
%TA.AperFunction,ComponentPad*%
%ADD34RoundRect,0.875000X-0.875000X0.875000X-0.875000X-0.875000X0.875000X-0.875000X0.875000X0.875000X0*%
%TD*%
%TA.AperFunction,ViaPad*%
%ADD35C,0.600000*%
%TD*%
%TA.AperFunction,Conductor*%
%ADD36C,0.200000*%
%TD*%
%TA.AperFunction,Conductor*%
%ADD37C,0.199800*%
%TD*%
%TA.AperFunction,Conductor*%
%ADD38C,0.600000*%
%TD*%
%TA.AperFunction,Conductor*%
%ADD39C,0.300000*%
%TD*%
%TA.AperFunction,Conductor*%
%ADD40C,0.800000*%
%TD*%
%TA.AperFunction,Conductor*%
%ADD41C,0.400000*%
%TD*%
%TA.AperFunction,Conductor*%
%ADD42C,0.500000*%
%TD*%
G04 APERTURE END LIST*
D10*
%TO.P,R64,1*%
%TO.N,LED4*%
X100807500Y-77790000D03*
%TO.P,R64,2*%
%TO.N,LED4_K*%
X102632500Y-77790000D03*
%TD*%
D11*
%TO.P,D24,1*%
%TO.N,GND*%
X74000000Y-71500000D03*
D12*
%TO.P,D24,2*%
%TO.N,LED4_K*%
X76540000Y-71500000D03*
%TD*%
D10*
%TO.P,R202,1*%
%TO.N,IN_R_TN*%
X8057500Y-46870000D03*
%TO.P,R202,2*%
%TO.N,GND*%
X9882500Y-46870000D03*
%TD*%
D13*
%TO.P,C501,1*%
%TO.N,+9V*%
X87440000Y-40840000D03*
D14*
%TO.P,C501,2*%
%TO.N,GND*%
X89940000Y-40840000D03*
%TD*%
D13*
%TO.P,C503,1*%
%TO.N,+9VA*%
X102820000Y-40840000D03*
D14*
%TO.P,C503,2*%
%TO.N,GND*%
X105320000Y-40840000D03*
%TD*%
D15*
%TO.P,C102,1*%
%TO.N,IN_L_OPIN*%
X37790000Y-41200000D03*
%TO.P,C102,2*%
%TO.N,GND*%
X39690000Y-41200000D03*
%TD*%
%TO.P,C206,1*%
%TO.N,IN_R_CODEC*%
X8090000Y-49750000D03*
%TO.P,C206,2*%
%TO.N,GND*%
X9990000Y-49750000D03*
%TD*%
D11*
%TO.P,D21,1*%
%TO.N,GND*%
X14000000Y-71500000D03*
D12*
%TO.P,D21,2*%
%TO.N,LED1_K*%
X16540000Y-71500000D03*
%TD*%
D10*
%TO.P,R102,1*%
%TO.N,IN_L_TN*%
X8057500Y-41170000D03*
%TO.P,R102,2*%
%TO.N,GND*%
X9882500Y-41170000D03*
%TD*%
D16*
%TO.P,U2,1*%
%TO.N,IN_L_BUF*%
X4275000Y-34725000D03*
%TO.P,U2,2*%
X4275000Y-35995000D03*
%TO.P,U2,3*%
%TO.N,IN_L_OPIN*%
X4275000Y-37265000D03*
%TO.P,U2,4*%
%TO.N,GND*%
X4275000Y-38535000D03*
%TO.P,U2,5*%
%TO.N,AREF*%
X9225000Y-38535000D03*
%TO.P,U2,6*%
%TO.N,IN_L_INN*%
X9225000Y-37265000D03*
%TO.P,U2,7*%
%TO.N,IN_L_S2OUT*%
X9225000Y-35995000D03*
%TO.P,U2,8*%
%TO.N,+9VA_OPA*%
X9225000Y-34725000D03*
%TD*%
%TO.P,U6,1*%
%TO.N,OUT_R_AMP*%
X61855000Y-34725000D03*
%TO.P,U6,2*%
%TO.N,OUT_R_INN*%
X61855000Y-35995000D03*
%TO.P,U6,3*%
%TO.N,AREF*%
X61855000Y-37265000D03*
%TO.P,U6,4*%
%TO.N,GND*%
X61855000Y-38535000D03*
%TO.P,U6,5*%
%TO.N,AREF*%
X66805000Y-38535000D03*
%TO.P,U6,6*%
%TO.N,U6B_OUT*%
X66805000Y-37265000D03*
%TO.P,U6,7*%
X66805000Y-35995000D03*
%TO.P,U6,8*%
%TO.N,+9VA_OPA*%
X66805000Y-34725000D03*
%TD*%
D10*
%TO.P,R402,1*%
%TO.N,OUT_R_INN*%
X53067500Y-44020000D03*
%TO.P,R402,2*%
%TO.N,OUT_R_AMP*%
X54892500Y-44020000D03*
%TD*%
D17*
%TO.P,U5,1*%
%TO.N,+5V*%
X112412500Y-24800000D03*
%TO.P,U5,2*%
%TO.N,+9V*%
X112412500Y-25750000D03*
%TO.P,U5,3*%
X112412500Y-26700000D03*
%TO.P,U5,4*%
%TO.N,GND*%
X114687500Y-26700000D03*
%TO.P,U5,5*%
%TO.N,BUCK_SW*%
X114687500Y-25750000D03*
%TO.P,U5,6*%
%TO.N,BUCK_BST*%
X114687500Y-24800000D03*
%TD*%
D11*
%TO.P,D23,1*%
%TO.N,GND*%
X54000000Y-71500000D03*
D12*
%TO.P,D23,2*%
%TO.N,LED3_K*%
X56540000Y-71500000D03*
%TD*%
D13*
%TO.P,C505,1*%
%TO.N,+5V_ESP*%
X118190000Y-40840000D03*
D14*
%TO.P,C505,2*%
%TO.N,GND*%
X120690000Y-40840000D03*
%TD*%
D13*
%TO.P,C401,1*%
%TO.N,OUT_R_C*%
X63570000Y-30290000D03*
D14*
%TO.P,C401,2*%
%TO.N,OUT_R_DAC*%
X65570000Y-30290000D03*
%TD*%
D18*
%TO.P,J13,1*%
%TO.N,FS3*%
X44000000Y-97500000D03*
D19*
%TO.P,J13,2*%
%TO.N,GND*%
X46500000Y-97500000D03*
%TD*%
D15*
%TO.P,C513,1*%
%TO.N,AREF_DIV*%
X93300000Y-35560000D03*
%TO.P,C513,2*%
%TO.N,GND*%
X95200000Y-35560000D03*
%TD*%
D10*
%TO.P,R106,1*%
%TO.N,IN_L_S2IN*%
X25067500Y-41170000D03*
%TO.P,R106,2*%
%TO.N,IN_L_INN*%
X26892500Y-41170000D03*
%TD*%
D20*
%TO.P,RV3,*%
%TO.N,*%
X49700000Y-57500000D03*
X59300000Y-57500000D03*
D11*
%TO.P,RV3,1*%
%TO.N,+3V3A*%
X52000000Y-65000000D03*
D12*
%TO.P,RV3,2*%
%TO.N,KNOB3*%
X54500000Y-65000000D03*
%TO.P,RV3,3*%
%TO.N,GND*%
X57000000Y-65000000D03*
%TD*%
D18*
%TO.P,J15,1*%
%TO.N,FS5*%
X76000000Y-97500000D03*
D19*
%TO.P,J15,2*%
%TO.N,GND*%
X78500000Y-97500000D03*
%TD*%
D21*
%TO.P,SW2,1*%
%TO.N,LP_A*%
X137460000Y-65000000D03*
D14*
%TO.P,SW2,2*%
%TO.N,GND*%
X140000000Y-65000000D03*
%TO.P,SW2,3*%
%TO.N,LP_B*%
X142540000Y-65000000D03*
%TD*%
D10*
%TO.P,R201,1*%
%TO.N,IN_R_BIAS*%
X3807500Y-46870000D03*
%TO.P,R201,2*%
%TO.N,AREF*%
X5632500Y-46870000D03*
%TD*%
D15*
%TO.P,C103,1*%
%TO.N,IN_L_DIV*%
X42080000Y-41200000D03*
%TO.P,C103,2*%
%TO.N,GND*%
X43980000Y-41200000D03*
%TD*%
D10*
%TO.P,R304,1*%
%TO.N,OUT_L_TIP*%
X61567500Y-41170000D03*
%TO.P,R304,2*%
%TO.N,GND*%
X63392500Y-41170000D03*
%TD*%
D13*
%TO.P,C301,1*%
%TO.N,OUT_L_C*%
X50790000Y-30290000D03*
D14*
%TO.P,C301,2*%
%TO.N,OUT_L_DAC*%
X52790000Y-30290000D03*
%TD*%
D22*
%TO.P,J3,R*%
%TO.N,OUT_R_TIP*%
X62000000Y-12850000D03*
%TO.P,J3,RN*%
%TO.N,unconnected-(J3-PadRN)*%
X45770000Y-12850000D03*
%TO.P,J3,S*%
%TO.N,GND*%
X62000000Y-19200000D03*
%TO.P,J3,SN*%
%TO.N,N/C*%
X45770000Y-19200000D03*
%TO.P,J3,T*%
%TO.N,OUT_L_TIP*%
X62000000Y-6500000D03*
%TO.P,J3,TN*%
%TO.N,unconnected-(J3-PadTN)*%
X45770000Y-6500000D03*
%TD*%
D10*
%TO.P,R61,1*%
%TO.N,LED1*%
X100807500Y-75000000D03*
%TO.P,R61,2*%
%TO.N,LED1_K*%
X102632500Y-75000000D03*
%TD*%
D15*
%TO.P,C402,1*%
%TO.N,OUT_R_INN*%
X65800000Y-44050000D03*
%TO.P,C402,2*%
%TO.N,OUT_R_AMP*%
X67700000Y-44050000D03*
%TD*%
D23*
%TO.P,FB4,1*%
%TO.N,+5V*%
X107007500Y-32290000D03*
%TO.P,FB4,2*%
%TO.N,+5V_ESP*%
X109132500Y-32290000D03*
%TD*%
D24*
%TO.P,R501,1*%
%TO.N,+9V*%
X115817500Y-32560000D03*
%TO.P,R501,2*%
%TO.N,+9V_RC1*%
X118742500Y-32560000D03*
%TD*%
D10*
%TO.P,R302,1*%
%TO.N,OUT_L_INN*%
X53067500Y-41170000D03*
%TO.P,R302,2*%
%TO.N,OUT_L_AMP*%
X54892500Y-41170000D03*
%TD*%
D18*
%TO.P,J14,1*%
%TO.N,FS4*%
X60000000Y-97500000D03*
D19*
%TO.P,J14,2*%
%TO.N,GND*%
X62500000Y-97500000D03*
%TD*%
D15*
%TO.P,C512,1*%
%TO.N,+5V_ESP*%
X111460000Y-32409999D03*
%TO.P,C512,2*%
%TO.N,GND*%
X113360000Y-32409999D03*
%TD*%
D25*
%TO.P,U1,1*%
%TO.N,FS1*%
X24000000Y-91240000D03*
D26*
%TO.P,U1,2*%
%TO.N,FS2*%
X26540000Y-91240000D03*
%TO.P,U1,3*%
%TO.N,FS3*%
X29080000Y-91240000D03*
%TO.P,U1,4*%
%TO.N,FS4*%
X31620000Y-91240000D03*
%TO.P,U1,5*%
%TO.N,FS5*%
X34160000Y-91240000D03*
%TO.P,U1,6*%
%TO.N,HP_A*%
X36700000Y-91240000D03*
%TO.P,U1,7*%
%TO.N,HP_B*%
X39240000Y-91240000D03*
%TO.P,U1,8*%
%TO.N,LP_A*%
X41780000Y-91240000D03*
%TO.P,U1,9*%
%TO.N,LP_B*%
X44320000Y-91240000D03*
%TO.P,U1,10*%
%TO.N,LED1*%
X46860000Y-91240000D03*
%TO.P,U1,11*%
%TO.N,LED2*%
X49400000Y-91240000D03*
%TO.P,U1,12*%
%TO.N,LED3*%
X51940000Y-91240000D03*
%TO.P,U1,13*%
%TO.N,LED4*%
X54480000Y-91240000D03*
%TO.P,U1,14*%
%TO.N,UART_SEED_TX*%
X57020000Y-91240000D03*
%TO.P,U1,15*%
%TO.N,UART_SEED_RX*%
X59560000Y-91240000D03*
%TO.P,U1,16*%
%TO.N,IN_L_CODEC*%
X62100000Y-91240000D03*
%TO.P,U1,17*%
%TO.N,IN_R_CODEC*%
X64640000Y-91240000D03*
%TO.P,U1,18*%
%TO.N,OUT_L_DAC*%
X67180000Y-91240000D03*
%TO.P,U1,19*%
%TO.N,OUT_R_DAC*%
X69720000Y-91240000D03*
%TO.P,U1,20*%
%TO.N,GND*%
X72260000Y-91240000D03*
%TO.P,U1,21*%
%TO.N,+3V3A*%
X72260000Y-76000000D03*
%TO.P,U1,22*%
%TO.N,KNOB1*%
X69720000Y-76000000D03*
%TO.P,U1,23*%
%TO.N,KNOB2*%
X67180000Y-76000000D03*
%TO.P,U1,24*%
%TO.N,KNOB3*%
X64640000Y-76000000D03*
%TO.P,U1,25*%
%TO.N,KNOB4*%
X62100000Y-76000000D03*
%TO.P,U1,26*%
%TO.N,KNOB5*%
X59560000Y-76000000D03*
%TO.P,U1,27*%
%TO.N,KNOB6*%
X57020000Y-76000000D03*
%TO.P,U1,28*%
%TO.N,unconnected-(U1-D21-Pad28)*%
X54480000Y-76000000D03*
%TO.P,U1,29*%
%TO.N,unconnected-(U1-D22-Pad29)*%
X51940000Y-76000000D03*
%TO.P,U1,30*%
%TO.N,unconnected-(U1-D23-Pad30)*%
X49400000Y-76000000D03*
%TO.P,U1,31*%
%TO.N,unconnected-(U1-D24-Pad31)*%
X46860000Y-76000000D03*
%TO.P,U1,32*%
%TO.N,unconnected-(U1-D25-Pad32)*%
X44320000Y-76000000D03*
%TO.P,U1,33*%
%TO.N,LED5*%
X41780000Y-76000000D03*
%TO.P,U1,34*%
%TO.N,unconnected-(U1-D27-Pad34)*%
X39240000Y-76000000D03*
%TO.P,U1,35*%
%TO.N,unconnected-(U1-D28-Pad35)*%
X36700000Y-76000000D03*
%TO.P,U1,36*%
%TO.N,unconnected-(U1-D29-Pad36)*%
X34160000Y-76000000D03*
%TO.P,U1,37*%
%TO.N,unconnected-(U1-D30-Pad37)*%
X31620000Y-76000000D03*
%TO.P,U1,38*%
%TO.N,unconnected-(U1-3V3_D-Pad38)*%
X29080000Y-76000000D03*
%TO.P,U1,39*%
%TO.N,+5V_SEED*%
X26540000Y-76000000D03*
%TO.P,U1,40*%
%TO.N,GND*%
X24000000Y-76000000D03*
%TD*%
D10*
%TO.P,R504,1*%
%TO.N,+9VA_OPA*%
X84807500Y-35530000D03*
%TO.P,R504,2*%
%TO.N,AREF_DIV*%
X86632500Y-35530000D03*
%TD*%
D15*
%TO.P,C105,1*%
%TO.N,IN_L_INN*%
X3800000Y-44050000D03*
%TO.P,C105,2*%
%TO.N,IN_L_S2OUT*%
X5700000Y-44050000D03*
%TD*%
%TO.P,C509,1*%
%TO.N,+5V*%
X84800000Y-32409999D03*
%TO.P,C509,2*%
%TO.N,GND*%
X86700000Y-32409999D03*
%TD*%
D10*
%TO.P,R206,1*%
%TO.N,IN_R_S2IN*%
X25067500Y-46870000D03*
%TO.P,R206,2*%
%TO.N,IN_R_INN*%
X26892500Y-46870000D03*
%TD*%
D20*
%TO.P,RV4,*%
%TO.N,*%
X69700000Y-57500000D03*
X79300000Y-57500000D03*
D11*
%TO.P,RV4,1*%
%TO.N,+3V3A*%
X72000000Y-65000000D03*
D12*
%TO.P,RV4,2*%
%TO.N,KNOB4*%
X74500000Y-65000000D03*
%TO.P,RV4,3*%
%TO.N,GND*%
X77000000Y-65000000D03*
%TD*%
D10*
%TO.P,R107,1*%
%TO.N,IN_L_INN*%
X29317500Y-41170000D03*
%TO.P,R107,2*%
%TO.N,IN_L_S2OUT*%
X31142500Y-41170000D03*
%TD*%
%TO.P,R203,1*%
%TO.N,IN_R_BIAS*%
X12307500Y-46870000D03*
%TO.P,R203,2*%
%TO.N,IN_R_OPIN*%
X14132500Y-46870000D03*
%TD*%
D13*
%TO.P,C204,1*%
%TO.N,IN_R_S2IN*%
X24960000Y-30290000D03*
D14*
%TO.P,C204,2*%
%TO.N,IN_R_DIV*%
X26960000Y-30290000D03*
%TD*%
D11*
%TO.P,D25,1*%
%TO.N,GND*%
X94000000Y-71500000D03*
D12*
%TO.P,D25,2*%
%TO.N,LED5_K*%
X96540000Y-71500000D03*
%TD*%
D10*
%TO.P,R401,1*%
%TO.N,OUT_R_C*%
X48817500Y-44020000D03*
%TO.P,R401,2*%
%TO.N,OUT_R_INN*%
X50642500Y-44020000D03*
%TD*%
D27*
%TO.P,D2,1*%
%TO.N,GND*%
X96430000Y-25800000D03*
%TO.P,D2,2*%
%TO.N,VIN_D*%
X100430000Y-25800000D03*
%TD*%
D10*
%TO.P,R108,1*%
%TO.N,IN_L_S2OUT*%
X33567500Y-41170000D03*
%TO.P,R108,2*%
%TO.N,IN_L_CODEC*%
X35392500Y-41170000D03*
%TD*%
D13*
%TO.P,C201,1*%
%TO.N,IN_R_BIAS*%
X18570000Y-30290000D03*
D14*
%TO.P,C201,2*%
%TO.N,IN_R_TIP*%
X20570000Y-30290000D03*
%TD*%
D20*
%TO.P,RV2,*%
%TO.N,*%
X29700000Y-57500000D03*
X39300000Y-57500000D03*
D11*
%TO.P,RV2,1*%
%TO.N,+3V3A*%
X32000000Y-65000000D03*
D12*
%TO.P,RV2,2*%
%TO.N,KNOB2*%
X34500000Y-65000000D03*
%TO.P,RV2,3*%
%TO.N,GND*%
X37000000Y-65000000D03*
%TD*%
D13*
%TO.P,C104,1*%
%TO.N,IN_L_S2IN*%
X12180000Y-30290000D03*
D14*
%TO.P,C104,2*%
%TO.N,IN_L_DIV*%
X14180000Y-30290000D03*
%TD*%
D25*
%TO.P,J6,1*%
%TO.N,unconnected-(J6-Pin_1-Pad1)*%
X133240000Y-68000000D03*
D26*
%TO.P,J6,2*%
%TO.N,unconnected-(J6-Pin_2-Pad2)*%
X133240000Y-70540000D03*
%TO.P,J6,3*%
%TO.N,unconnected-(J6-Pin_3-Pad3)*%
X133240000Y-73080000D03*
%TO.P,J6,4*%
%TO.N,unconnected-(J6-Pin_4-Pad4)*%
X133240000Y-75620000D03*
%TO.P,J6,5*%
%TO.N,unconnected-(J6-Pin_5-Pad5)*%
X133240000Y-78160000D03*
%TO.P,J6,6*%
%TO.N,unconnected-(J6-Pin_6-Pad6)*%
X133240000Y-80700000D03*
%TO.P,J6,7*%
%TO.N,UART_SEED_RX*%
X133240000Y-83240000D03*
%TO.P,J6,8*%
%TO.N,UART_SEED_TX*%
X133240000Y-85780000D03*
%TD*%
D20*
%TO.P,RV5,*%
%TO.N,*%
X89700000Y-57500000D03*
X99300000Y-57500000D03*
D11*
%TO.P,RV5,1*%
%TO.N,+3V3A*%
X92000000Y-65000000D03*
D12*
%TO.P,RV5,2*%
%TO.N,KNOB5*%
X94500000Y-65000000D03*
%TO.P,RV5,3*%
%TO.N,GND*%
X97000000Y-65000000D03*
%TD*%
D15*
%TO.P,C508,1*%
%TO.N,+5V*%
X129420000Y-25020000D03*
%TO.P,C508,2*%
%TO.N,GND*%
X131320000Y-25020000D03*
%TD*%
D28*
%TO.P,D1,1*%
%TO.N,VIN_D*%
X91390000Y-25000000D03*
%TO.P,D1,2*%
%TO.N,VIN_F*%
X93490000Y-25000000D03*
%TD*%
D10*
%TO.P,R105,1*%
%TO.N,IN_L_DIV*%
X20817500Y-41170000D03*
%TO.P,R105,2*%
%TO.N,GND*%
X22642500Y-41170000D03*
%TD*%
D15*
%TO.P,C511,1*%
%TO.N,+5V_SEED*%
X102780000Y-32409999D03*
%TO.P,C511,2*%
%TO.N,GND*%
X104680000Y-32409999D03*
%TD*%
D24*
%TO.P,R502,1*%
%TO.N,+9V_RC1*%
X121267500Y-32560000D03*
%TO.P,R502,2*%
%TO.N,+9VA*%
X124192500Y-32560000D03*
%TD*%
D29*
%TO.P,F1,1*%
%TO.N,VIN_RAW*%
X84862500Y-26000000D03*
%TO.P,F1,2*%
%TO.N,VIN_F*%
X89137500Y-26000000D03*
%TD*%
D15*
%TO.P,C524,1*%
%TO.N,+9VA_OPA*%
X69670000Y-34910000D03*
%TO.P,C524,2*%
%TO.N,GND*%
X71570000Y-34910000D03*
%TD*%
D30*
%TO.P,C510,1*%
%TO.N,BUCK_SW*%
X89045000Y-32159999D03*
%TO.P,C510,2*%
%TO.N,BUCK_BST*%
X90595000Y-32159999D03*
%TD*%
D10*
%TO.P,R208,1*%
%TO.N,IN_R_S2OUT*%
X33567500Y-46870000D03*
%TO.P,R208,2*%
%TO.N,IN_R_CODEC*%
X35392500Y-46870000D03*
%TD*%
D15*
%TO.P,C522,1*%
%TO.N,+9VA_OPA*%
X24670000Y-34910000D03*
%TO.P,C522,2*%
%TO.N,GND*%
X26570000Y-34910000D03*
%TD*%
D13*
%TO.P,C101,1*%
%TO.N,IN_L_BIAS*%
X5790000Y-30290000D03*
D14*
%TO.P,C101,2*%
%TO.N,IN_L_TIP*%
X7790000Y-30290000D03*
%TD*%
D15*
%TO.P,C202,1*%
%TO.N,IN_R_OPIN*%
X37790000Y-46900000D03*
%TO.P,C202,2*%
%TO.N,GND*%
X39690000Y-46900000D03*
%TD*%
D16*
%TO.P,U4,1*%
%TO.N,OUT_L_AMP*%
X49265000Y-34725000D03*
%TO.P,U4,2*%
%TO.N,OUT_L_INN*%
X49265000Y-35995000D03*
%TO.P,U4,3*%
%TO.N,AREF*%
X49265000Y-37265000D03*
%TO.P,U4,4*%
%TO.N,GND*%
X49265000Y-38535000D03*
%TO.P,U4,5*%
%TO.N,AREF_DIV*%
X54215000Y-38535000D03*
%TO.P,U4,6*%
%TO.N,AREF*%
X54215000Y-37265000D03*
%TO.P,U4,7*%
X54215000Y-35995000D03*
%TO.P,U4,8*%
%TO.N,+9VA_OPA*%
X54215000Y-34725000D03*
%TD*%
D13*
%TO.P,C303,1*%
%TO.N,OUT_L_RC*%
X57180000Y-30290000D03*
D14*
%TO.P,C303,2*%
%TO.N,OUT_L_TIP*%
X59180000Y-30290000D03*
%TD*%
D24*
%TO.P,R503,1*%
%TO.N,+5V_FB*%
X97397500Y-32560000D03*
%TO.P,R503,2*%
%TO.N,+5V_SEED*%
X100322500Y-32560000D03*
%TD*%
D20*
%TO.P,RV6,*%
%TO.N,*%
X109700000Y-57500000D03*
X119300000Y-57500000D03*
D11*
%TO.P,RV6,1*%
%TO.N,+3V3A*%
X112000000Y-65000000D03*
D12*
%TO.P,RV6,2*%
%TO.N,KNOB6*%
X114500000Y-65000000D03*
%TO.P,RV6,3*%
%TO.N,GND*%
X117000000Y-65000000D03*
%TD*%
D23*
%TO.P,FB1,1*%
%TO.N,VIN_D*%
X103507500Y-24890000D03*
%TO.P,FB1,2*%
%TO.N,+9V*%
X105632500Y-24890000D03*
%TD*%
D15*
%TO.P,C205,1*%
%TO.N,IN_R_INN*%
X3800000Y-49750000D03*
%TO.P,C205,2*%
%TO.N,IN_R_S2OUT*%
X5700000Y-49750000D03*
%TD*%
D10*
%TO.P,R205,1*%
%TO.N,IN_R_DIV*%
X20817500Y-46870000D03*
%TO.P,R205,2*%
%TO.N,GND*%
X22642500Y-46870000D03*
%TD*%
D18*
%TO.P,J12,1*%
%TO.N,FS2*%
X28000000Y-97500000D03*
D19*
%TO.P,J12,2*%
%TO.N,GND*%
X30500000Y-97500000D03*
%TD*%
D15*
%TO.P,C106,1*%
%TO.N,IN_L_CODEC*%
X8090000Y-44050000D03*
%TO.P,C106,2*%
%TO.N,GND*%
X9990000Y-44050000D03*
%TD*%
D10*
%TO.P,R207,1*%
%TO.N,IN_R_INN*%
X29317500Y-46870000D03*
%TO.P,R207,2*%
%TO.N,IN_R_S2OUT*%
X31142500Y-46870000D03*
%TD*%
D23*
%TO.P,FB3,1*%
%TO.N,+5V*%
X92877500Y-32290000D03*
%TO.P,FB3,2*%
%TO.N,+5V_FB*%
X95002500Y-32290000D03*
%TD*%
D25*
%TO.P,J5,1*%
%TO.N,+5V_ESP*%
X118000000Y-68000000D03*
D26*
%TO.P,J5,2*%
%TO.N,GND*%
X118000000Y-70540000D03*
%TO.P,J5,3*%
%TO.N,unconnected-(J5-Pin_3-Pad3)*%
X118000000Y-73080000D03*
%TO.P,J5,4*%
%TO.N,unconnected-(J5-Pin_4-Pad4)*%
X118000000Y-75620000D03*
%TO.P,J5,5*%
%TO.N,unconnected-(J5-Pin_5-Pad5)*%
X118000000Y-78160000D03*
%TO.P,J5,6*%
%TO.N,unconnected-(J5-Pin_6-Pad6)*%
X118000000Y-80700000D03*
%TO.P,J5,7*%
%TO.N,unconnected-(J5-Pin_7-Pad7)*%
X118000000Y-83240000D03*
%TO.P,J5,8*%
%TO.N,unconnected-(J5-Pin_8-Pad8)*%
X118000000Y-85780000D03*
%TD*%
D18*
%TO.P,J11,1*%
%TO.N,FS1*%
X12000000Y-97500000D03*
D19*
%TO.P,J11,2*%
%TO.N,GND*%
X14500000Y-97500000D03*
%TD*%
D10*
%TO.P,R505,1*%
%TO.N,AREF_DIV*%
X89057500Y-35530000D03*
%TO.P,R505,2*%
%TO.N,GND*%
X90882500Y-35530000D03*
%TD*%
D11*
%TO.P,D22,1*%
%TO.N,GND*%
X34000000Y-71500000D03*
D12*
%TO.P,D22,2*%
%TO.N,LED2_K*%
X36540000Y-71500000D03*
%TD*%
D23*
%TO.P,FB2,1*%
%TO.N,+9VA*%
X126587500Y-32290000D03*
%TO.P,FB2,2*%
%TO.N,+9VA_OPA*%
X128712500Y-32290000D03*
%TD*%
D16*
%TO.P,U3,1*%
%TO.N,IN_R_BUF*%
X16855000Y-34725000D03*
%TO.P,U3,2*%
X16855000Y-35995000D03*
%TO.P,U3,3*%
%TO.N,IN_R_OPIN*%
X16855000Y-37265000D03*
%TO.P,U3,4*%
%TO.N,GND*%
X16855000Y-38535000D03*
%TO.P,U3,5*%
%TO.N,AREF*%
X21805000Y-38535000D03*
%TO.P,U3,6*%
%TO.N,IN_R_INN*%
X21805000Y-37265000D03*
%TO.P,U3,7*%
%TO.N,IN_R_S2OUT*%
X21805000Y-35995000D03*
%TO.P,U3,8*%
%TO.N,+9VA_OPA*%
X21805000Y-34725000D03*
%TD*%
D15*
%TO.P,C203,1*%
%TO.N,IN_R_DIV*%
X42080000Y-46900000D03*
%TO.P,C203,2*%
%TO.N,GND*%
X43980000Y-46900000D03*
%TD*%
D13*
%TO.P,C403,1*%
%TO.N,OUT_R_RC*%
X69960000Y-30290000D03*
D14*
%TO.P,C403,2*%
%TO.N,OUT_R_TIP*%
X71960000Y-30290000D03*
%TD*%
D15*
%TO.P,C507,1*%
%TO.N,+9V*%
X117240000Y-25020000D03*
%TO.P,C507,2*%
%TO.N,GND*%
X119140000Y-25020000D03*
%TD*%
D13*
%TO.P,C502,1*%
%TO.N,+9V_RC1*%
X95130000Y-40840000D03*
D14*
%TO.P,C502,2*%
%TO.N,GND*%
X97630000Y-40840000D03*
%TD*%
D15*
%TO.P,C523,1*%
%TO.N,+9VA_OPA*%
X57080000Y-34910000D03*
%TO.P,C523,2*%
%TO.N,GND*%
X58980000Y-34910000D03*
%TD*%
D21*
%TO.P,SW1,1*%
%TO.N,HP_A*%
X137460000Y-54000000D03*
D14*
%TO.P,SW1,2*%
%TO.N,GND*%
X140000000Y-54000000D03*
%TO.P,SW1,3*%
%TO.N,HP_B*%
X142540000Y-54000000D03*
%TD*%
D10*
%TO.P,R303,1*%
%TO.N,OUT_L_AMP*%
X57317500Y-41170000D03*
%TO.P,R303,2*%
%TO.N,OUT_L_RC*%
X59142500Y-41170000D03*
%TD*%
%TO.P,R104,1*%
%TO.N,IN_L_BUF*%
X16567500Y-41170000D03*
%TO.P,R104,2*%
%TO.N,IN_L_DIV*%
X18392500Y-41170000D03*
%TD*%
D20*
%TO.P,RV1,*%
%TO.N,*%
X9700000Y-57500000D03*
X19300000Y-57500000D03*
D11*
%TO.P,RV1,1*%
%TO.N,+3V3A*%
X12000000Y-65000000D03*
D12*
%TO.P,RV1,2*%
%TO.N,KNOB1*%
X14500000Y-65000000D03*
%TO.P,RV1,3*%
%TO.N,GND*%
X17000000Y-65000000D03*
%TD*%
D10*
%TO.P,R65,1*%
%TO.N,LED5*%
X105057500Y-77790000D03*
%TO.P,R65,2*%
%TO.N,LED5_K*%
X106882500Y-77790000D03*
%TD*%
%TO.P,R103,1*%
%TO.N,IN_L_BIAS*%
X12307500Y-41170000D03*
%TO.P,R103,2*%
%TO.N,IN_L_OPIN*%
X14132500Y-41170000D03*
%TD*%
%TO.P,R63,1*%
%TO.N,LED3*%
X109307500Y-75000000D03*
%TO.P,R63,2*%
%TO.N,LED3_K*%
X111132500Y-75000000D03*
%TD*%
%TO.P,R204,1*%
%TO.N,IN_R_BUF*%
X16567500Y-46870000D03*
%TO.P,R204,2*%
%TO.N,IN_R_DIV*%
X18392500Y-46870000D03*
%TD*%
%TO.P,R101,1*%
%TO.N,IN_L_BIAS*%
X3807500Y-41170000D03*
%TO.P,R101,2*%
%TO.N,AREF*%
X5632500Y-41170000D03*
%TD*%
%TO.P,R404,1*%
%TO.N,OUT_R_TIP*%
X61567500Y-44020000D03*
%TO.P,R404,2*%
%TO.N,GND*%
X63392500Y-44020000D03*
%TD*%
%TO.P,R403,1*%
%TO.N,OUT_R_AMP*%
X57317500Y-44020000D03*
%TO.P,R403,2*%
%TO.N,OUT_R_RC*%
X59142500Y-44020000D03*
%TD*%
%TO.P,R301,1*%
%TO.N,OUT_L_C*%
X48817500Y-41170000D03*
%TO.P,R301,2*%
%TO.N,OUT_L_INN*%
X50642500Y-41170000D03*
%TD*%
D15*
%TO.P,C506,1*%
%TO.N,+9V*%
X107960000Y-25020000D03*
%TO.P,C506,2*%
%TO.N,GND*%
X109860000Y-25020000D03*
%TD*%
D13*
%TO.P,C504,1*%
%TO.N,+5V_SEED*%
X110510000Y-40840000D03*
D14*
%TO.P,C504,2*%
%TO.N,GND*%
X113010000Y-40840000D03*
%TD*%
D31*
%TO.P,L1,1*%
%TO.N,BUCK_SW*%
X122205000Y-27300000D03*
%TO.P,L1,2*%
%TO.N,+5V*%
X126355000Y-27300000D03*
%TD*%
D15*
%TO.P,C514,1*%
%TO.N,AREF*%
X97590000Y-35560000D03*
%TO.P,C514,2*%
%TO.N,GND*%
X99490000Y-35560000D03*
%TD*%
%TO.P,C521,1*%
%TO.N,+9VA_OPA*%
X12090000Y-34910000D03*
%TO.P,C521,2*%
%TO.N,GND*%
X13990000Y-34910000D03*
%TD*%
D22*
%TO.P,J2,R*%
%TO.N,IN_R_TIP*%
X30000000Y-12850000D03*
%TO.P,J2,RN*%
%TO.N,IN_R_TN*%
X13770000Y-12850000D03*
%TO.P,J2,S*%
%TO.N,GND*%
X30000000Y-19200000D03*
%TO.P,J2,SN*%
%TO.N,N/C*%
X13770000Y-19200000D03*
%TO.P,J2,T*%
%TO.N,IN_L_TIP*%
X30000000Y-6500000D03*
%TO.P,J2,TN*%
%TO.N,IN_L_TN*%
X13770000Y-6500000D03*
%TD*%
D32*
%TO.P,J1,1*%
%TO.N,GND*%
X134000000Y-13500000D03*
D33*
%TO.P,J1,2*%
%TO.N,VIN_RAW*%
X134000000Y-7500000D03*
D34*
%TO.P,J1,3*%
%TO.N,GND*%
X129300000Y-10500000D03*
%TD*%
D15*
%TO.P,C302,1*%
%TO.N,OUT_L_INN*%
X65800000Y-41200000D03*
%TO.P,C302,2*%
%TO.N,OUT_L_AMP*%
X67700000Y-41200000D03*
%TD*%
D10*
%TO.P,R62,1*%
%TO.N,LED2*%
X105057500Y-75000000D03*
%TO.P,R62,2*%
%TO.N,LED2_K*%
X106882500Y-75000000D03*
%TD*%
D35*
%TO.N,LED4*%
X55800000Y-89900000D03*
%TO.N,LED4_K*%
X79100000Y-79000000D03*
X79100000Y-74100000D03*
%TO.N,GND*%
X14900000Y-37900000D03*
X40900000Y-48300000D03*
X109900000Y-25000000D03*
X95200000Y-35600000D03*
X113400000Y-32400000D03*
X68600000Y-27900000D03*
X61800000Y-39200000D03*
X26600000Y-34900000D03*
X88400000Y-34200000D03*
X22700000Y-47300000D03*
X24200000Y-44000000D03*
X10000000Y-49800000D03*
X69600000Y-26900000D03*
X119100000Y-25000000D03*
X131300000Y-25000000D03*
X99500000Y-35600000D03*
X16400000Y-38200000D03*
X63400000Y-44000000D03*
X104700000Y-32400000D03*
X51500000Y-38500000D03*
X63400000Y-41200000D03*
X61200000Y-31700000D03*
X96400000Y-25800000D03*
X4300000Y-38500000D03*
X59100000Y-35400000D03*
X23300000Y-42800000D03*
X14000000Y-35000000D03*
X48800000Y-38800000D03*
X114900000Y-27000000D03*
X86900000Y-32700000D03*
X47400000Y-40000000D03*
X58300000Y-40000000D03*
X10000000Y-44000000D03*
%TO.N,+9V*%
X110500000Y-28400000D03*
X112900000Y-30100000D03*
X94100000Y-37000000D03*
X98900000Y-29500000D03*
%TO.N,IN_L_OPIN*%
X15300000Y-39700000D03*
X5200000Y-37600000D03*
X13500000Y-40700000D03*
X26000000Y-40100000D03*
%TO.N,IN_R_CODEC*%
X33400000Y-51100000D03*
X8600000Y-50300000D03*
X8600000Y-51600000D03*
X63700000Y-100000000D03*
X34700000Y-47300000D03*
%TO.N,LED1_K*%
X102600000Y-93000000D03*
X102600000Y-95400000D03*
X99700000Y-77200000D03*
X99800000Y-83800000D03*
%TO.N,IN_L_TN*%
X13800000Y-23400000D03*
X13800000Y-25200000D03*
%TO.N,IN_L_BUF*%
X15200000Y-42300000D03*
X16400000Y-41400000D03*
X6500000Y-36300000D03*
X5200000Y-36300000D03*
%TO.N,AREF*%
X23800000Y-36600000D03*
X46800000Y-37500000D03*
X64700000Y-36000000D03*
X35900000Y-49100000D03*
X6500000Y-41200000D03*
X51800000Y-36900000D03*
X8600000Y-38300000D03*
X37800000Y-42700000D03*
X56200000Y-36500000D03*
X50600000Y-37500000D03*
X84300000Y-36900000D03*
X27400000Y-38700000D03*
X92300000Y-41800000D03*
X62500000Y-36900000D03*
X14000000Y-49100000D03*
%TO.N,IN_L_INN*%
X6500000Y-33300000D03*
X3800000Y-32600000D03*
X18500000Y-36300000D03*
X12300000Y-36300000D03*
X25600000Y-42500000D03*
X24300000Y-42900000D03*
%TO.N,IN_L_S2OUT*%
X25600000Y-45200000D03*
X3300000Y-45400000D03*
X14300000Y-51600000D03*
X9000000Y-39400000D03*
X5500000Y-44200000D03*
%TO.N,+9VA_OPA*%
X70000000Y-34900000D03*
X55800000Y-27900000D03*
X24400000Y-34800000D03*
X21800000Y-28200000D03*
X10000000Y-34700000D03*
X61700000Y-21300000D03*
X23200000Y-34000000D03*
X13100000Y-27500000D03*
X72800000Y-34900000D03*
X22700000Y-29800000D03*
X14500000Y-27300000D03*
X10900000Y-33800000D03*
X54900000Y-29300000D03*
X23400000Y-28400000D03*
X64000000Y-21400000D03*
%TO.N,OUT_R_AMP*%
X64200000Y-42900000D03*
X69700000Y-43600000D03*
X69700000Y-42300000D03*
X60500000Y-41300000D03*
X59500000Y-46200000D03*
%TO.N,OUT_R_INN*%
X53700000Y-45400000D03*
X66100000Y-44100000D03*
X64900000Y-33500000D03*
X52500000Y-46600000D03*
%TO.N,+5V*%
X107200000Y-32100000D03*
X127200000Y-25300000D03*
X93400000Y-32100000D03*
X113100000Y-24600000D03*
X112400000Y-24800000D03*
X85200000Y-32400000D03*
X129400000Y-25000000D03*
%TO.N,BUCK_SW*%
X114700000Y-25800000D03*
X112800000Y-27800000D03*
X118400000Y-26500000D03*
%TO.N,LED3_K*%
X58800000Y-70200000D03*
X63900000Y-68800000D03*
%TO.N,+5V_ESP*%
X110700000Y-32400000D03*
X113900000Y-36100000D03*
X116000000Y-58700000D03*
X109200000Y-32400000D03*
X116000000Y-60200000D03*
X113900000Y-38800000D03*
%TO.N,OUT_R_C*%
X58500000Y-33600000D03*
X59800000Y-33200000D03*
%TO.N,OUT_R_DAC*%
X66500000Y-58800000D03*
X67800000Y-46300000D03*
X67300000Y-32100000D03*
X73400000Y-73500000D03*
X75400000Y-83800000D03*
X67100000Y-65600000D03*
%TO.N,AREF_DIV*%
X63800000Y-38000000D03*
X90900000Y-34200000D03*
X89700000Y-35400000D03*
X55000000Y-38200000D03*
%TO.N,IN_L_S2IN*%
X13100000Y-33000000D03*
X16900000Y-33800000D03*
%TO.N,+3V3A*%
X79200000Y-66300000D03*
X57400000Y-59400000D03*
X98200000Y-63500000D03*
X52600000Y-63100000D03*
X80600000Y-65000000D03*
X68800000Y-63300000D03*
X31700000Y-68200000D03*
X72300000Y-71500000D03*
X58300000Y-60300000D03*
X96300000Y-63600000D03*
X41000000Y-69900000D03*
%TO.N,FS5*%
X35400000Y-88900000D03*
%TO.N,LP_A*%
X40500000Y-85500000D03*
X51800000Y-71400000D03*
X58900000Y-66100000D03*
%TO.N,LP_B*%
X45600000Y-93600000D03*
%TO.N,IN_R_BIAS*%
X11000000Y-47000000D03*
X4500000Y-47000000D03*
%TO.N,IN_L_DIV*%
X38500000Y-48200000D03*
X20600000Y-41000000D03*
X41000000Y-45700000D03*
X19200000Y-41300000D03*
X19700000Y-47300000D03*
X22000000Y-49600000D03*
X19500000Y-38200000D03*
%TO.N,OUT_L_TIP*%
X60500000Y-42300000D03*
X46000000Y-37400000D03*
%TO.N,OUT_L_DAC*%
X62900000Y-60100000D03*
X58500000Y-52100000D03*
X72200000Y-86100000D03*
X81700000Y-67000000D03*
%TO.N,OUT_R_TIP*%
X60300000Y-44000000D03*
X62800000Y-16400000D03*
X61400000Y-16600000D03*
X72000000Y-37400000D03*
%TO.N,LED1*%
X48300000Y-89300000D03*
%TO.N,OUT_L_INN*%
X51500000Y-42900000D03*
X50500000Y-42000000D03*
X48700000Y-35600000D03*
%TO.N,OUT_L_AMP*%
X49100000Y-42700000D03*
X64700000Y-41400000D03*
X54600000Y-40800000D03*
X64400000Y-46200000D03*
X54000000Y-39600000D03*
X50900000Y-45300000D03*
%TO.N,HP_A*%
X38100000Y-88800000D03*
%TO.N,LED2*%
X66200000Y-78600000D03*
X67500000Y-79100000D03*
X50800000Y-89300000D03*
%TO.N,LED3*%
X53200000Y-89300000D03*
X65700000Y-80900000D03*
X64800000Y-80000000D03*
%TO.N,UART_SEED_TX*%
X130100000Y-81300000D03*
X130400000Y-85100000D03*
%TO.N,IN_L_CODEC*%
X55600000Y-81100000D03*
X35200000Y-52000000D03*
X38300000Y-67500000D03*
X38300000Y-63100000D03*
X6500000Y-42900000D03*
X63000000Y-88700000D03*
X42800000Y-85000000D03*
X41200000Y-83400000D03*
X2700000Y-43200000D03*
X34300000Y-52900000D03*
%TO.N,KNOB1*%
X57300000Y-61300000D03*
X63400000Y-65500000D03*
X53300000Y-57300000D03*
X32700000Y-60800000D03*
X40200000Y-62100000D03*
%TO.N,KNOB2*%
X54900000Y-61900000D03*
X55900000Y-62700000D03*
%TO.N,KNOB4*%
X62000000Y-69800000D03*
%TO.N,KNOB5*%
X90900000Y-68600000D03*
X64300000Y-82300000D03*
X90900000Y-80600000D03*
X58300000Y-78300000D03*
%TO.N,KNOB6*%
X114500000Y-68600000D03*
X114500000Y-69900000D03*
X62100000Y-84500000D03*
%TO.N,LED5*%
X99700000Y-75200000D03*
X46900000Y-79100000D03*
X48700000Y-79100000D03*
X61600000Y-73000000D03*
X103600000Y-76800000D03*
X65000000Y-72900000D03*
%TO.N,+5V_SEED*%
X96600000Y-34600000D03*
X50000000Y-62900000D03*
X48800000Y-64400000D03*
X98600000Y-33100000D03*
%TO.N,IN_R_INN*%
X26500000Y-48600000D03*
X28800000Y-42900000D03*
X22400000Y-36900000D03*
X26500000Y-47300000D03*
%TO.N,IN_R_OPIN*%
X17400000Y-37600000D03*
X18800000Y-37700000D03*
%TO.N,IN_R_DIV*%
X22000000Y-42400000D03*
X20100000Y-43300000D03*
X41300000Y-37900000D03*
X24000000Y-39700000D03*
X24300000Y-33500000D03*
X25600000Y-33300000D03*
X28900000Y-32100000D03*
X42700000Y-42500000D03*
%TO.N,VIN_F*%
X92800000Y-24600000D03*
X93500000Y-25000000D03*
%TO.N,IN_R_S2OUT*%
X30700000Y-48600000D03*
X30700000Y-47300000D03*
X31100000Y-42500000D03*
X22200000Y-32200000D03*
%TO.N,IN_L_BIAS*%
X13900000Y-42900000D03*
X13000000Y-41700000D03*
%TO.N,LED2_K*%
X106500000Y-68600000D03*
X93700000Y-58800000D03*
X78200000Y-46300000D03*
X42500000Y-67500000D03*
X93700000Y-60100000D03*
X46900000Y-63100000D03*
X78200000Y-44600000D03*
X106500000Y-74600000D03*
%TD*%
%TO.N,LED4*%
D36*
X67900000Y-77800000D02*
X100800000Y-77800000D01*
X55800000Y-89900000D02*
X67900000Y-77800000D01*
%TO.N,LED4_K*%
X102100000Y-78300000D02*
X102100000Y-78700000D01*
X101400000Y-79300000D02*
X84300000Y-79300000D01*
X102632500Y-77790000D02*
X102600000Y-77800000D01*
X84000000Y-79000000D02*
X79100000Y-79000000D01*
D37*
X102600000Y-77800000D02*
X102100000Y-78300000D01*
D36*
X101500000Y-79200000D02*
X101400000Y-79300000D01*
X102100000Y-78700000D02*
X101600000Y-79200000D01*
X84300000Y-79300000D02*
X84000000Y-79000000D01*
X79100000Y-74100000D02*
X76500000Y-71500000D01*
X101600000Y-79200000D02*
X101500000Y-79200000D01*
%TO.N,GND*%
D38*
X10000000Y-44000000D02*
X9990000Y-44050000D01*
D39*
X114700000Y-26700000D02*
X114687500Y-26700000D01*
X23100000Y-42300000D02*
X22600000Y-41800000D01*
D38*
X96400000Y-25800000D02*
X96430000Y-25800000D01*
X71500000Y-28800000D02*
X69600000Y-26900000D01*
X60600000Y-31100000D02*
X61200000Y-31700000D01*
X72300000Y-28800000D02*
X71500000Y-28800000D01*
X71600000Y-34900000D02*
X74100000Y-32400000D01*
X75400000Y-31100000D02*
X85500000Y-31100000D01*
X16700000Y-38500000D02*
X16900000Y-38500000D01*
X63600000Y-27900000D02*
X60600000Y-30900000D01*
X74100000Y-32400000D02*
X74100000Y-30500000D01*
X131300000Y-25000000D02*
X131320000Y-25020000D01*
X86700000Y-32400000D02*
X86900000Y-32600000D01*
X71570000Y-34910000D02*
X71600000Y-34900000D01*
X22600000Y-47000000D02*
X22600000Y-46900000D01*
X44000000Y-41200000D02*
X44000000Y-46900000D01*
X22600000Y-46900000D02*
X22642500Y-46870000D01*
X22800000Y-47200000D02*
X22600000Y-47000000D01*
X59000000Y-34900000D02*
X58980000Y-34910000D01*
X14700000Y-37600000D02*
X12500000Y-39800000D01*
X14700000Y-37600000D02*
X14800000Y-37700000D01*
X61900000Y-38500000D02*
X61855000Y-38535000D01*
X4300000Y-38500000D02*
X4275000Y-38535000D01*
X89700000Y-34200000D02*
X90900000Y-35400000D01*
X9900000Y-44100000D02*
X9900000Y-46900000D01*
X14800000Y-37800000D02*
X14900000Y-37900000D01*
X58300000Y-36300000D02*
X58300000Y-40000000D01*
X59100000Y-35400000D02*
X58500000Y-36000000D01*
X60600000Y-30900000D02*
X60600000Y-31100000D01*
X10000000Y-44000000D02*
X9900000Y-44100000D01*
X61900000Y-39100000D02*
X61900000Y-38500000D01*
X99500000Y-35600000D02*
X99490000Y-35560000D01*
X11300000Y-39800000D02*
X9900000Y-41200000D01*
X68600000Y-27900000D02*
X63600000Y-27900000D01*
X90900000Y-35500000D02*
X90882500Y-35530000D01*
X44000000Y-46900000D02*
X43980000Y-46900000D01*
X40900000Y-48300000D02*
X39700000Y-47100000D01*
X16900000Y-38500000D02*
X16855000Y-38535000D01*
X86700000Y-32300000D02*
X86700000Y-32400000D01*
X9900000Y-41200000D02*
X9882500Y-41170000D01*
X22771429Y-47228571D02*
X22800000Y-47200000D01*
X63400000Y-41200000D02*
X63392500Y-41170000D01*
D39*
X24200000Y-45800000D02*
X24200000Y-44000000D01*
D38*
X42600000Y-39800000D02*
X41100000Y-39800000D01*
X16400000Y-38200000D02*
X16700000Y-38500000D01*
X58500000Y-36100000D02*
X58300000Y-36300000D01*
X59100000Y-35400000D02*
X59000000Y-35300000D01*
X26600000Y-34900000D02*
X26570000Y-34910000D01*
X14000000Y-35000000D02*
X14000000Y-34900000D01*
D39*
X114700000Y-26800000D02*
X114700000Y-26700000D01*
D38*
X44000000Y-41200000D02*
X43980000Y-41200000D01*
X49000000Y-38800000D02*
X48800000Y-38800000D01*
X41100000Y-39800000D02*
X39700000Y-41200000D01*
X39700000Y-41200000D02*
X39690000Y-41200000D01*
X12500000Y-39800000D02*
X11300000Y-39800000D01*
X119100000Y-25000000D02*
X119140000Y-25020000D01*
X59000000Y-35300000D02*
X59000000Y-34900000D01*
X85500000Y-31100000D02*
X86700000Y-32300000D01*
X86900000Y-32600000D02*
X86900000Y-32700000D01*
X63400000Y-44000000D02*
X63392500Y-44020000D01*
X61800000Y-39200000D02*
X61900000Y-39100000D01*
X49300000Y-38500000D02*
X49000000Y-38800000D01*
X46200000Y-41200000D02*
X44000000Y-41200000D01*
D39*
X22700000Y-47300000D02*
X24200000Y-45800000D01*
D38*
X44000000Y-41200000D02*
X42600000Y-39800000D01*
X104700000Y-32400000D02*
X104680000Y-32409999D01*
X74100000Y-30500000D02*
X72500000Y-28900000D01*
D39*
X114900000Y-27000000D02*
X114700000Y-26800000D01*
X23300000Y-42800000D02*
X23100000Y-42600000D01*
D38*
X74100000Y-32400000D02*
X75400000Y-31100000D01*
X10000000Y-49800000D02*
X9990000Y-49750000D01*
X51500000Y-38500000D02*
X49300000Y-38500000D01*
X39700000Y-46900000D02*
X39690000Y-46900000D01*
X16400000Y-38200000D02*
X16400000Y-38235000D01*
X72500000Y-28900000D02*
X72400000Y-28900000D01*
X39700000Y-47100000D02*
X39700000Y-46900000D01*
X109900000Y-25000000D02*
X109860000Y-25020000D01*
X95200000Y-35600000D02*
X95200000Y-35560000D01*
X14000000Y-34900000D02*
X13990000Y-34910000D01*
D39*
X22600000Y-41800000D02*
X22600000Y-41200000D01*
D38*
X49300000Y-38500000D02*
X49265000Y-38535000D01*
X47400000Y-40000000D02*
X46200000Y-41200000D01*
X14700000Y-35700000D02*
X14700000Y-37600000D01*
X9900000Y-46900000D02*
X9882500Y-46870000D01*
X113400000Y-32400000D02*
X113360000Y-32409999D01*
X90900000Y-35400000D02*
X90900000Y-35500000D01*
X14800000Y-37700000D02*
X14800000Y-37800000D01*
X14000000Y-35000000D02*
X14700000Y-35700000D01*
X58500000Y-36000000D02*
X58500000Y-36100000D01*
X72400000Y-28900000D02*
X72300000Y-28800000D01*
X88400000Y-34200000D02*
X89700000Y-34200000D01*
D39*
X22600000Y-41200000D02*
X22642500Y-41170000D01*
X23100000Y-42600000D02*
X23100000Y-42300000D01*
%TO.N,IN_R_TN*%
D36*
X4800000Y-43400000D02*
X4800000Y-44700000D01*
X13800000Y-12800000D02*
X8100000Y-18500000D01*
X2900000Y-41800000D02*
X4100000Y-43000000D01*
X2900000Y-40500000D02*
X2900000Y-41800000D01*
X2900000Y-34400000D02*
X2900000Y-38900000D01*
X8100000Y-18500000D02*
X8100000Y-26000000D01*
X4100000Y-43000000D02*
X4400000Y-43000000D01*
X4600000Y-29500000D02*
X4600000Y-32700000D01*
X2900000Y-38900000D02*
X3600000Y-39600000D01*
X3600000Y-39600000D02*
X3600000Y-39800000D01*
X3600000Y-39800000D02*
X2900000Y-40500000D01*
X8100000Y-46900000D02*
X8057500Y-46870000D01*
X4400000Y-43000000D02*
X4800000Y-43400000D01*
X7000000Y-45800000D02*
X8100000Y-46900000D01*
X4800000Y-44700000D02*
X5900000Y-45800000D01*
X5900000Y-45800000D02*
X7000000Y-45800000D01*
X4600000Y-32700000D02*
X2900000Y-34400000D01*
X8100000Y-26000000D02*
X4600000Y-29500000D01*
%TO.N,+9V*%
D40*
X110900000Y-28000000D02*
X110500000Y-28400000D01*
D36*
X100900000Y-27500000D02*
X101400000Y-27500000D01*
D40*
X105700000Y-25000000D02*
X108000000Y-25000000D01*
X115100000Y-27900000D02*
X115400000Y-27900000D01*
X112900000Y-30100000D02*
X113400000Y-30100000D01*
X108000000Y-25000000D02*
X107960000Y-25020000D01*
D41*
X111900000Y-26300000D02*
X112300000Y-26700000D01*
D40*
X112900000Y-30100000D02*
X115100000Y-27900000D01*
D41*
X108000000Y-25000000D02*
X109300000Y-26300000D01*
D40*
X103000000Y-27500000D02*
X105600000Y-24900000D01*
D41*
X109300000Y-26300000D02*
X111900000Y-26300000D01*
D40*
X117200000Y-26100000D02*
X117200000Y-25000000D01*
X113400000Y-30100000D02*
X115800000Y-32500000D01*
D41*
X112300000Y-26700000D02*
X112400000Y-26700000D01*
D40*
X105600000Y-24900000D02*
X105700000Y-25000000D01*
X101400000Y-27500000D02*
X103000000Y-27500000D01*
D36*
X98900000Y-29500000D02*
X100900000Y-27500000D01*
D41*
X112400000Y-25800000D02*
X112412500Y-25750000D01*
D40*
X110900000Y-26300000D02*
X110900000Y-28000000D01*
X117200000Y-25000000D02*
X117240000Y-25020000D01*
X115800000Y-32500000D02*
X115800000Y-32600000D01*
X115400000Y-27900000D02*
X117200000Y-26100000D01*
D36*
X111900000Y-26300000D02*
X112400000Y-25800000D01*
D40*
X115800000Y-32600000D02*
X115817500Y-32560000D01*
X105600000Y-24900000D02*
X105632500Y-24890000D01*
X87400000Y-40800000D02*
X91100000Y-37100000D01*
X91100000Y-37100000D02*
X94000000Y-37100000D01*
%TO.N,+9VA*%
D38*
X105700000Y-37900000D02*
X118900000Y-37900000D01*
X118900000Y-37900000D02*
X124200000Y-32600000D01*
X124500000Y-32300000D02*
X126600000Y-32300000D01*
X124200000Y-32600000D02*
X124500000Y-32300000D01*
X102800000Y-40800000D02*
X105700000Y-37900000D01*
X124200000Y-32600000D02*
X124192500Y-32560000D01*
%TO.N,IN_L_OPIN*%
D36*
X15300000Y-40000000D02*
X15300000Y-39700000D01*
X14100000Y-41200000D02*
X15300000Y-40000000D01*
X4900000Y-37300000D02*
X4300000Y-37300000D01*
X26300000Y-40200000D02*
X26400000Y-40100000D01*
X5200000Y-37600000D02*
X4900000Y-37300000D01*
X4300000Y-37300000D02*
X4275000Y-37265000D01*
X14100000Y-41200000D02*
X13600000Y-40700000D01*
X36700000Y-40100000D02*
X37800000Y-41200000D01*
X14132500Y-41170000D02*
X14100000Y-41200000D01*
X26100000Y-40200000D02*
X26300000Y-40200000D01*
X26400000Y-40100000D02*
X36700000Y-40100000D01*
%TO.N,IN_R_CODEC*%
X33300000Y-67700000D02*
X26200000Y-74800000D01*
X37900000Y-55600000D02*
X33300000Y-60200000D01*
X25400000Y-76500000D02*
X25500000Y-76600000D01*
X35400000Y-46900000D02*
X35000000Y-47300000D01*
X25300000Y-76300000D02*
X25400000Y-76400000D01*
X52200000Y-99700000D02*
X52300000Y-99700000D01*
X28700000Y-92400000D02*
X28800000Y-92500000D01*
X27800000Y-91600000D02*
X28600000Y-92400000D01*
X25500000Y-76600000D02*
X25500000Y-76700000D01*
X10400000Y-51400000D02*
X8800000Y-51400000D01*
X52300000Y-99700000D02*
X52400000Y-99800000D01*
X33300000Y-60200000D02*
X33300000Y-67700000D01*
X33400000Y-51100000D02*
X37900000Y-55600000D01*
X30200000Y-92900000D02*
X37200000Y-92900000D01*
X25400000Y-76400000D02*
X25400000Y-76500000D01*
X11100000Y-50900000D02*
X10800000Y-51200000D01*
X10800000Y-51200000D02*
X10700000Y-51200000D01*
X33400000Y-51100000D02*
X33200000Y-50900000D01*
X25500000Y-76700000D02*
X27800000Y-79000000D01*
X63500000Y-99800000D02*
X63700000Y-100000000D01*
X51400000Y-98900000D02*
X52200000Y-99700000D01*
X8100000Y-49800000D02*
X8090000Y-49750000D01*
X28600000Y-92400000D02*
X28700000Y-92400000D01*
X35392500Y-46870000D02*
X35400000Y-46900000D01*
X29800000Y-92500000D02*
X30200000Y-92900000D01*
X35000000Y-47300000D02*
X34700000Y-47300000D01*
X10700000Y-51200000D02*
X10600000Y-51300000D01*
X33200000Y-50900000D02*
X11100000Y-50900000D01*
X8800000Y-51400000D02*
X8600000Y-51600000D01*
X34700000Y-47300000D02*
X34880000Y-47300000D01*
X37200000Y-92900000D02*
X43200000Y-98900000D01*
X10600000Y-51300000D02*
X10500000Y-51300000D01*
X52400000Y-99800000D02*
X63500000Y-99800000D01*
X10500000Y-51300000D02*
X10400000Y-51400000D01*
X26000000Y-74800000D02*
X25300000Y-75500000D01*
X43200000Y-98900000D02*
X51400000Y-98900000D01*
X8600000Y-50300000D02*
X8100000Y-49800000D01*
X25300000Y-75500000D02*
X25300000Y-76300000D01*
X27800000Y-79000000D02*
X27800000Y-91600000D01*
X28800000Y-92500000D02*
X29800000Y-92500000D01*
X26200000Y-74800000D02*
X26000000Y-74800000D01*
%TO.N,LED1_K*%
X102600000Y-86600000D02*
X99800000Y-83800000D01*
X97300000Y-100700000D02*
X102600000Y-95400000D01*
X102600000Y-93000000D02*
X102600000Y-86600000D01*
X25300000Y-80300000D02*
X25300000Y-97000000D01*
X100800000Y-76100000D02*
X101500000Y-76100000D01*
X43000000Y-99300000D02*
X51200000Y-99300000D01*
X52300000Y-100200000D02*
X52400000Y-100300000D01*
X62900000Y-100300000D02*
X63300000Y-100700000D01*
X99700000Y-77200000D02*
X100800000Y-76100000D01*
X16500000Y-71500000D02*
X25300000Y-80300000D01*
X52400000Y-100300000D02*
X62900000Y-100300000D01*
X51200000Y-99300000D02*
X52000000Y-100100000D01*
X102600000Y-75000000D02*
X102632500Y-75000000D01*
X52000000Y-100100000D02*
X52100000Y-100100000D01*
X101500000Y-76100000D02*
X102600000Y-75000000D01*
X27200000Y-98900000D02*
X42600000Y-98900000D01*
X52100000Y-100100000D02*
X52200000Y-100200000D01*
X63300000Y-100700000D02*
X97300000Y-100700000D01*
X42600000Y-98900000D02*
X43000000Y-99300000D01*
X25300000Y-97000000D02*
X27200000Y-98900000D01*
X52200000Y-100200000D02*
X52300000Y-100200000D01*
%TO.N,IN_L_TN*%
X15100000Y-29600000D02*
X15100000Y-29500000D01*
X15300000Y-11800000D02*
X15300000Y-11700000D01*
X15100000Y-29500000D02*
X13800000Y-28200000D01*
X15300000Y-32000000D02*
X15300000Y-29800000D01*
X8100000Y-41200000D02*
X10100000Y-39200000D01*
X13800000Y-10200000D02*
X13800000Y-6500000D01*
X15600000Y-21600000D02*
X15600000Y-12200000D01*
X13800000Y-23400000D02*
X15600000Y-21600000D01*
X8057500Y-41170000D02*
X8100000Y-41200000D01*
X13800000Y-28200000D02*
X13800000Y-25200000D01*
X13100000Y-34200000D02*
X15300000Y-32000000D01*
X13100000Y-36400000D02*
X13100000Y-34200000D01*
X15600000Y-12200000D02*
X15500000Y-12100000D01*
X15500000Y-12100000D02*
X15500000Y-12000000D01*
X15500000Y-12000000D02*
X15300000Y-11800000D01*
X15300000Y-29800000D02*
X15100000Y-29600000D01*
X15300000Y-11700000D02*
X13800000Y-10200000D01*
X10300000Y-39200000D02*
X13100000Y-36400000D01*
X10100000Y-39200000D02*
X10300000Y-39200000D01*
%TO.N,IN_L_BUF*%
X4300000Y-34700000D02*
X4275000Y-34725000D01*
X7100000Y-41800000D02*
X7500000Y-42200000D01*
X5000000Y-36500000D02*
X5200000Y-36300000D01*
X7700000Y-42300000D02*
X15200000Y-42300000D01*
X7100000Y-36900000D02*
X7100000Y-41800000D01*
X6500000Y-36300000D02*
X7100000Y-36900000D01*
X16400000Y-41400000D02*
X16600000Y-41200000D01*
X4275000Y-35995000D02*
X4300000Y-36000000D01*
X4300000Y-36000000D02*
X4300000Y-34700000D01*
X7500000Y-42200000D02*
X7600000Y-42200000D01*
X16600000Y-41200000D02*
X16567500Y-41170000D01*
X7600000Y-42200000D02*
X7700000Y-42300000D01*
%TO.N,AREF*%
X38700000Y-41800000D02*
X37800000Y-42700000D01*
X94000000Y-40000000D02*
X97600000Y-36400000D01*
X62300000Y-37300000D02*
X61900000Y-37300000D01*
X27600000Y-38500000D02*
X27400000Y-38700000D01*
X4000000Y-48000000D02*
X4500000Y-48000000D01*
X94000000Y-40100000D02*
X94000000Y-40000000D01*
X14200000Y-49100000D02*
X14000000Y-49100000D01*
X10400000Y-50900000D02*
X3400000Y-50900000D01*
X67400000Y-37900000D02*
X67600000Y-37900000D01*
X83500000Y-38000000D02*
X84300000Y-37200000D01*
X56200000Y-36500000D02*
X55400000Y-37300000D01*
X67200000Y-38000000D02*
X65900000Y-38000000D01*
X54200000Y-37300000D02*
X54215000Y-37265000D01*
X15500000Y-50400000D02*
X14200000Y-49100000D01*
X65800000Y-37900000D02*
X64700000Y-36800000D01*
X50600000Y-37500000D02*
X50400000Y-37300000D01*
X23800000Y-36600000D02*
X23200000Y-37200000D01*
X22300000Y-38500000D02*
X21800000Y-38500000D01*
X61900000Y-37300000D02*
X61855000Y-37265000D01*
X9200000Y-38500000D02*
X9225000Y-38535000D01*
X14000000Y-49100000D02*
X12200000Y-49100000D01*
X23100000Y-37700000D02*
X22300000Y-38500000D01*
X2900000Y-50400000D02*
X2900000Y-49100000D01*
X54200000Y-37100000D02*
X54000000Y-36900000D01*
X67250000Y-38050000D02*
X67200000Y-38000000D01*
X92300000Y-41800000D02*
X94000000Y-40100000D01*
X23200000Y-37500000D02*
X23100000Y-37600000D01*
X23100000Y-37600000D02*
X23100000Y-37700000D01*
X97600000Y-36400000D02*
X97600000Y-35600000D01*
X8600000Y-38300000D02*
X8800000Y-38500000D01*
X54200000Y-37300000D02*
X54200000Y-37100000D01*
X35900000Y-49100000D02*
X34800000Y-49100000D01*
X46800000Y-37500000D02*
X45800000Y-38500000D01*
X54200000Y-36700000D02*
X54200000Y-36000000D01*
X65900000Y-38000000D02*
X65800000Y-37900000D01*
X23200000Y-37200000D02*
X23200000Y-37500000D01*
X5600000Y-46900000D02*
X5632500Y-46870000D01*
X97600000Y-35600000D02*
X97590000Y-35560000D01*
X21800000Y-38500000D02*
X21805000Y-38535000D01*
X66800000Y-38500000D02*
X67400000Y-37900000D01*
X66805000Y-38535000D02*
X66800000Y-38500000D01*
X62500000Y-36900000D02*
X62500000Y-37100000D01*
X4500000Y-48000000D02*
X5600000Y-46900000D01*
X6500000Y-41200000D02*
X5600000Y-41200000D01*
X34800000Y-49100000D02*
X33500000Y-50400000D01*
X33500000Y-50400000D02*
X15500000Y-50400000D01*
X62500000Y-37100000D02*
X62300000Y-37300000D01*
X8800000Y-38500000D02*
X9200000Y-38500000D01*
X54000000Y-36900000D02*
X51800000Y-36900000D01*
X64700000Y-36800000D02*
X64700000Y-36000000D01*
X67600000Y-37900000D02*
X67700000Y-38000000D01*
X38700000Y-38500000D02*
X38700000Y-41800000D01*
X12200000Y-49100000D02*
X10400000Y-50900000D01*
X45800000Y-38500000D02*
X27600000Y-38500000D01*
X54000000Y-36900000D02*
X54200000Y-36700000D01*
X49300000Y-37300000D02*
X49265000Y-37265000D01*
X55400000Y-37300000D02*
X54200000Y-37300000D01*
X50400000Y-37300000D02*
X49300000Y-37300000D01*
X67700000Y-38000000D02*
X83500000Y-38000000D01*
X5600000Y-41200000D02*
X5632500Y-41170000D01*
X3400000Y-50900000D02*
X2900000Y-50400000D01*
X2900000Y-49100000D02*
X4000000Y-48000000D01*
%TO.N,IN_L_INN*%
X3800000Y-44000000D02*
X3800000Y-44050000D01*
X20400000Y-38800000D02*
X21900000Y-40300000D01*
X9700000Y-37800000D02*
X10800000Y-37800000D01*
X10600000Y-34400000D02*
X9500000Y-33300000D01*
X3800000Y-43400000D02*
X3800000Y-44000000D01*
X9500000Y-33300000D02*
X6500000Y-33300000D01*
X26900000Y-41200000D02*
X26892500Y-41170000D01*
X20400000Y-38200000D02*
X20400000Y-38800000D01*
X9225000Y-37265000D02*
X9200000Y-37300000D01*
X2600000Y-42200000D02*
X3800000Y-43400000D01*
X18500000Y-36300000D02*
X20400000Y-38200000D01*
X2500000Y-42000000D02*
X2600000Y-42100000D01*
X23600000Y-40200000D02*
X23600000Y-42200000D01*
X23600000Y-42200000D02*
X24300000Y-42900000D01*
X23500000Y-40100000D02*
X23600000Y-40200000D01*
X21900000Y-40300000D02*
X22100000Y-40100000D01*
X10600000Y-35000000D02*
X10600000Y-34400000D01*
X25600000Y-42500000D02*
X26900000Y-41200000D01*
X26900000Y-41200000D02*
X29300000Y-41200000D01*
X22100000Y-40100000D02*
X23500000Y-40100000D01*
X2500000Y-33900000D02*
X2500000Y-42000000D01*
X2600000Y-42100000D02*
X2600000Y-42200000D01*
X9200000Y-37300000D02*
X9700000Y-37800000D01*
X29300000Y-41200000D02*
X29317500Y-41170000D01*
X12300000Y-36300000D02*
X12100000Y-36500000D01*
X10800000Y-37800000D02*
X12300000Y-36300000D01*
X12100000Y-36500000D02*
X10600000Y-35000000D01*
X3800000Y-32600000D02*
X2500000Y-33900000D01*
%TO.N,IN_L_S2OUT*%
X9225000Y-35995000D02*
X9200000Y-36000000D01*
X2500000Y-46200000D02*
X3300000Y-45400000D01*
X28500000Y-42300000D02*
X30000000Y-42300000D01*
X33600000Y-41200000D02*
X33567500Y-41170000D01*
X2500000Y-50600000D02*
X2500000Y-46200000D01*
X5700000Y-44000000D02*
X5700000Y-44050000D01*
X8200000Y-36600000D02*
X7900000Y-36900000D01*
X25600000Y-45200000D02*
X28500000Y-42300000D01*
X5500000Y-44200000D02*
X5700000Y-44000000D01*
X13300000Y-52400000D02*
X4300000Y-52400000D01*
X8600000Y-36600000D02*
X8200000Y-36600000D01*
X8400000Y-39400000D02*
X9000000Y-39400000D01*
X9200000Y-36000000D02*
X8600000Y-36600000D01*
X31100000Y-41200000D02*
X33600000Y-41200000D01*
X31100000Y-41200000D02*
X31142500Y-41170000D01*
X7900000Y-38900000D02*
X8400000Y-39400000D01*
X4300000Y-52400000D02*
X2500000Y-50600000D01*
X30000000Y-42300000D02*
X31100000Y-41200000D01*
X14100000Y-51600000D02*
X13300000Y-52400000D01*
X14300000Y-51600000D02*
X14100000Y-51600000D01*
X7900000Y-36900000D02*
X7900000Y-38900000D01*
%TO.N,+9VA_OPA*%
D42*
X59200000Y-24300000D02*
X59200000Y-24400000D01*
X87700000Y-33700000D02*
X87800000Y-33600000D01*
X128400000Y-25900000D02*
X128700000Y-26200000D01*
X56700000Y-26900000D02*
X56700000Y-27000000D01*
X60900000Y-22600000D02*
X59200000Y-24300000D01*
X60900000Y-22100000D02*
X60900000Y-22600000D01*
X69700000Y-34900000D02*
X69500000Y-34700000D01*
X49600000Y-28000000D02*
X49200000Y-28400000D01*
X54900000Y-30300000D02*
X57100000Y-32500000D01*
X11700000Y-28900000D02*
X11300000Y-28900000D01*
D36*
X128300000Y-24700000D02*
X128300000Y-25400000D01*
D42*
X55800000Y-27900000D02*
X49800000Y-27900000D01*
D36*
X10000000Y-34700000D02*
X9200000Y-34700000D01*
D42*
X84800000Y-35500000D02*
X86600000Y-33700000D01*
X23200000Y-30300000D02*
X23200000Y-34000000D01*
X10800000Y-31200000D02*
X11600000Y-32000000D01*
X66800000Y-34700000D02*
X66805000Y-34725000D01*
X56700000Y-27000000D02*
X55800000Y-27900000D01*
X128300000Y-25700000D02*
X128400000Y-25800000D01*
X77300000Y-21400000D02*
X64000000Y-21400000D01*
X123800000Y-23000000D02*
X124000000Y-23000000D01*
X128300000Y-25400000D02*
X128300000Y-25700000D01*
X125400000Y-24200000D02*
X127800000Y-24200000D01*
X11300000Y-28900000D02*
X10800000Y-29400000D01*
X54900000Y-29300000D02*
X54900000Y-30300000D01*
D36*
X69500000Y-34700000D02*
X66800000Y-34700000D01*
D42*
X23200000Y-34000000D02*
X22500000Y-34700000D01*
X124300000Y-23100000D02*
X125400000Y-24200000D01*
X49700000Y-28000000D02*
X49600000Y-28000000D01*
X13100000Y-27500000D02*
X11700000Y-28900000D01*
X11600000Y-32400000D02*
X12100000Y-32900000D01*
X123700000Y-22900000D02*
X123800000Y-23000000D01*
X21800000Y-28200000D02*
X20900000Y-27300000D01*
X122900000Y-22500000D02*
X123300000Y-22900000D01*
D36*
X127800000Y-24200000D02*
X128300000Y-24700000D01*
D42*
X20900000Y-27300000D02*
X14500000Y-27300000D01*
X128700000Y-26200000D02*
X128700000Y-32300000D01*
X61700000Y-21300000D02*
X60900000Y-22100000D01*
X69700000Y-34900000D02*
X69670000Y-34910000D01*
X12100000Y-33800000D02*
X10900000Y-33800000D01*
X84807500Y-35530000D02*
X84800000Y-35500000D01*
X12100000Y-32900000D02*
X12100000Y-34900000D01*
X49800000Y-27900000D02*
X49700000Y-28000000D01*
X21800000Y-34700000D02*
X21805000Y-34725000D01*
X49200000Y-28400000D02*
X23400000Y-28400000D01*
X124000000Y-23000000D02*
X124100000Y-23100000D01*
X89700000Y-22500000D02*
X122900000Y-22500000D01*
D36*
X87800000Y-33600000D02*
X87800000Y-24400000D01*
D42*
X123300000Y-22900000D02*
X123700000Y-22900000D01*
X59200000Y-24400000D02*
X56700000Y-26900000D01*
X57100000Y-34900000D02*
X57080000Y-34910000D01*
D36*
X57100000Y-34700000D02*
X54200000Y-34700000D01*
D42*
X84600000Y-34900000D02*
X72800000Y-34900000D01*
X24700000Y-34900000D02*
X24670000Y-34910000D01*
X11600000Y-32000000D02*
X11600000Y-32400000D01*
D36*
X84200000Y-28300000D02*
X78200000Y-22300000D01*
D42*
X124100000Y-23100000D02*
X124300000Y-23100000D01*
D36*
X87800000Y-24400000D02*
X88500000Y-23700000D01*
D42*
X86600000Y-33700000D02*
X87700000Y-33700000D01*
X88500000Y-23700000D02*
X89700000Y-22500000D01*
X22700000Y-29800000D02*
X23200000Y-30300000D01*
X78200000Y-22300000D02*
X77300000Y-21400000D01*
X128400000Y-25800000D02*
X128400000Y-25900000D01*
X70000000Y-34900000D02*
X69700000Y-34900000D01*
X87800000Y-28300000D02*
X84200000Y-28300000D01*
X9200000Y-34700000D02*
X9225000Y-34725000D01*
X54200000Y-34700000D02*
X54215000Y-34725000D01*
X24500000Y-34900000D02*
X24700000Y-34900000D01*
X10800000Y-29400000D02*
X10800000Y-31200000D01*
X57100000Y-32500000D02*
X57100000Y-34900000D01*
D36*
X22500000Y-34700000D02*
X21800000Y-34700000D01*
D42*
X85000000Y-35300000D02*
X84600000Y-34900000D01*
%TO.N,OUT_R_AMP*%
D36*
X54900000Y-44000000D02*
X54892500Y-44020000D01*
X59000000Y-42300000D02*
X59500000Y-42300000D01*
X52200000Y-43300000D02*
X52500000Y-43000000D01*
X59500000Y-42300000D02*
X59600000Y-42200000D01*
X69300000Y-44000000D02*
X67700000Y-44000000D01*
X61900000Y-34700000D02*
X61855000Y-34725000D01*
X60500000Y-41000000D02*
X60500000Y-35600000D01*
X53500000Y-46100000D02*
X52200000Y-44800000D01*
X67700000Y-44000000D02*
X67700000Y-44050000D01*
X66000000Y-42300000D02*
X69700000Y-42300000D01*
X60500000Y-35600000D02*
X61400000Y-34700000D01*
X57317500Y-44020000D02*
X57300000Y-44000000D01*
X64200000Y-42900000D02*
X65400000Y-42900000D01*
X61400000Y-34700000D02*
X61900000Y-34700000D01*
X53900000Y-43000000D02*
X54900000Y-44000000D01*
X59600000Y-42200000D02*
X59700000Y-42200000D01*
X59400000Y-46100000D02*
X53500000Y-46100000D01*
X69700000Y-43600000D02*
X69300000Y-44000000D01*
X59700000Y-42200000D02*
X60700000Y-41200000D01*
X60700000Y-41200000D02*
X60500000Y-41000000D01*
X57300000Y-44000000D02*
X59000000Y-42300000D01*
X52200000Y-44800000D02*
X52200000Y-43300000D01*
X52500000Y-43000000D02*
X53900000Y-43000000D01*
X65400000Y-42900000D02*
X66000000Y-42300000D01*
%TO.N,OUT_R_INN*%
X53100000Y-44000000D02*
X53300000Y-44000000D01*
X65654545Y-44145455D02*
X65700000Y-44100000D01*
X53067500Y-44020000D02*
X53100000Y-44000000D01*
X53300000Y-44000000D02*
X54400000Y-45100000D01*
X50600000Y-44500000D02*
X50600000Y-44000000D01*
X50200000Y-44900000D02*
X50600000Y-44500000D01*
X62400000Y-36000000D02*
X61900000Y-36000000D01*
X51300000Y-46600000D02*
X50100000Y-45400000D01*
X56200000Y-45100000D02*
X56600000Y-45500000D01*
X50100000Y-45200000D02*
X50200000Y-45100000D01*
X64900000Y-33500000D02*
X62400000Y-36000000D01*
X61900000Y-36000000D02*
X61855000Y-35995000D01*
X50200000Y-45100000D02*
X50200000Y-44900000D01*
X65800000Y-44000000D02*
X65800000Y-44050000D01*
X65700000Y-44100000D02*
X66100000Y-44100000D01*
X50100000Y-45400000D02*
X50100000Y-45200000D01*
X54400000Y-45100000D02*
X56200000Y-45100000D01*
X52500000Y-46600000D02*
X51300000Y-46600000D01*
X56600000Y-45500000D02*
X64300000Y-45500000D01*
X54200000Y-44900000D02*
X53700000Y-45400000D01*
X50600000Y-44000000D02*
X50642500Y-44020000D01*
X64300000Y-45500000D02*
X65800000Y-44000000D01*
%TO.N,U6B_OUT*%
X66805000Y-37265000D02*
X66800000Y-37300000D01*
X66800000Y-37300000D02*
X66800000Y-36000000D01*
%TO.N,+5V*%
D40*
X123600000Y-23900000D02*
X123700000Y-24000000D01*
X116400000Y-23600000D02*
X122700000Y-23600000D01*
X85200000Y-32400000D02*
X84800000Y-32400000D01*
X113700000Y-23700000D02*
X113900000Y-23700000D01*
X123000000Y-23900000D02*
X123600000Y-23900000D01*
D36*
X114000000Y-23600000D02*
X116400000Y-23600000D01*
D40*
X123700000Y-24000000D02*
X123900000Y-24000000D01*
X93400000Y-32100000D02*
X93200000Y-32300000D01*
X113100000Y-24300000D02*
X113700000Y-23700000D01*
X126400000Y-26500000D02*
X126400000Y-27300000D01*
X122700000Y-23600000D02*
X123000000Y-23900000D01*
X113900000Y-23700000D02*
X114000000Y-23600000D01*
X126200000Y-26300000D02*
X127200000Y-25300000D01*
X93200000Y-32300000D02*
X92900000Y-32300000D01*
X107200000Y-32100000D02*
X107000000Y-32300000D01*
X123900000Y-24000000D02*
X126400000Y-26500000D01*
X92900000Y-32300000D02*
X92877500Y-32290000D01*
X126400000Y-27300000D02*
X126355000Y-27300000D01*
%TO.N,BUCK_SW*%
D36*
X112800000Y-27800000D02*
X109800000Y-30800000D01*
D40*
X109800000Y-30800000D02*
X90200000Y-30800000D01*
X90100000Y-30900000D02*
X89900000Y-30900000D01*
X89000000Y-32200000D02*
X89045000Y-32159999D01*
X118400000Y-26500000D02*
X119200000Y-27300000D01*
X89700000Y-31000000D02*
X89000000Y-31700000D01*
X119200000Y-27300000D02*
X122200000Y-27300000D01*
X89800000Y-31000000D02*
X89700000Y-31000000D01*
X89900000Y-30900000D02*
X89800000Y-31000000D01*
X90200000Y-30800000D02*
X90100000Y-30900000D01*
X89000000Y-31700000D02*
X89000000Y-32200000D01*
%TO.N,BUCK_BST*%
D36*
X113600000Y-27900000D02*
X113500000Y-28000000D01*
X109500000Y-33300000D02*
X105400000Y-33300000D01*
X90600000Y-32200000D02*
X90595000Y-32159999D01*
X113700000Y-25100000D02*
X113600000Y-25200000D01*
X105200000Y-33500000D02*
X101200000Y-33500000D01*
X92200000Y-33800000D02*
X90600000Y-32200000D01*
X114400000Y-25100000D02*
X113700000Y-25100000D01*
X110000000Y-32800000D02*
X109500000Y-33300000D01*
X100900000Y-33800000D02*
X92200000Y-33800000D01*
X113500000Y-28000000D02*
X113500000Y-28200000D01*
X101200000Y-33500000D02*
X100900000Y-33800000D01*
X113600000Y-25200000D02*
X113600000Y-27900000D01*
X110000000Y-31700000D02*
X110000000Y-32800000D01*
X105400000Y-33300000D02*
X105200000Y-33500000D01*
X113500000Y-28200000D02*
X110000000Y-31700000D01*
%TO.N,LED3_K*%
X69400000Y-74300000D02*
X73500000Y-74300000D01*
X75200000Y-72600000D02*
X75200000Y-71000000D01*
X73500000Y-74300000D02*
X75200000Y-72600000D01*
X56500000Y-71500000D02*
X56900000Y-71900000D01*
X75900000Y-70400000D02*
X76000000Y-70300000D01*
X106800000Y-70300000D02*
X111100000Y-74600000D01*
X63900000Y-68800000D02*
X69400000Y-74300000D01*
X75800000Y-70400000D02*
X75900000Y-70400000D01*
X75200000Y-71000000D02*
X75800000Y-70400000D01*
X57100000Y-71900000D02*
X58800000Y-70200000D01*
X111100000Y-75000000D02*
X111132500Y-75000000D01*
X56900000Y-71900000D02*
X57100000Y-71900000D01*
X76000000Y-70300000D02*
X106800000Y-70300000D01*
X111100000Y-74600000D02*
X111100000Y-75000000D01*
%TO.N,+5V_ESP*%
D38*
X117400000Y-56500000D02*
X117400000Y-56600000D01*
X118300000Y-65800000D02*
X118300000Y-65900000D01*
X118200000Y-40800000D02*
X116200000Y-38800000D01*
X111500000Y-33700000D02*
X111500000Y-32400000D01*
X116200000Y-38800000D02*
X113900000Y-38800000D01*
X111500000Y-32400000D02*
X110700000Y-32400000D01*
X117300000Y-56700000D02*
X117300000Y-57000000D01*
X118400000Y-62600000D02*
X118400000Y-65700000D01*
X118300000Y-65900000D02*
X118000000Y-66200000D01*
X118000000Y-55700000D02*
X117600000Y-56100000D01*
X116000000Y-60200000D02*
X118400000Y-62600000D01*
X110700000Y-32400000D02*
X110960000Y-32400000D01*
X117500000Y-56300000D02*
X117500000Y-56400000D01*
X117600000Y-56100000D02*
X117600000Y-56200000D01*
X117200000Y-57100000D02*
X117200000Y-57500000D01*
X118000000Y-66200000D02*
X118000000Y-68000000D01*
X113900000Y-36100000D02*
X111500000Y-33700000D01*
X117300000Y-57000000D02*
X117200000Y-57100000D01*
X118000000Y-41000000D02*
X118000000Y-55700000D01*
X117500000Y-56400000D02*
X117400000Y-56500000D01*
X117200000Y-57500000D02*
X116000000Y-58700000D01*
X118400000Y-65700000D02*
X118300000Y-65800000D01*
X111500000Y-32400000D02*
X111460000Y-32409999D01*
X117600000Y-56200000D02*
X117500000Y-56300000D01*
X117400000Y-56600000D02*
X117300000Y-56700000D01*
%TO.N,OUT_R_C*%
D36*
X53600000Y-40100000D02*
X52600000Y-40100000D01*
X55500000Y-38900000D02*
X55500000Y-39000000D01*
X55500000Y-39000000D02*
X54100000Y-40400000D01*
X55600000Y-38000000D02*
X55600000Y-38800000D01*
X55600000Y-38800000D02*
X55500000Y-38900000D01*
X52600000Y-40100000D02*
X51500000Y-41200000D01*
X48800000Y-44000000D02*
X48817500Y-44020000D01*
X60700000Y-33200000D02*
X59900000Y-33200000D01*
X50500000Y-42900000D02*
X49900000Y-42900000D01*
X63600000Y-30300000D02*
X60700000Y-33200000D01*
X53900000Y-40400000D02*
X53600000Y-40100000D01*
X54100000Y-40400000D02*
X53900000Y-40400000D01*
X57900000Y-34200000D02*
X57900000Y-35700000D01*
X57900000Y-35700000D02*
X55600000Y-38000000D01*
X51500000Y-41900000D02*
X50500000Y-42900000D01*
X58500000Y-33600000D02*
X57900000Y-34200000D01*
X51500000Y-41200000D02*
X51500000Y-41900000D01*
X49900000Y-42900000D02*
X48800000Y-44000000D01*
%TO.N,OUT_R_DAC*%
X69700000Y-69800000D02*
X73400000Y-73500000D01*
X69700000Y-68200000D02*
X69700000Y-69800000D01*
X67100000Y-65600000D02*
X69700000Y-68200000D01*
X67800000Y-46300000D02*
X66500000Y-47600000D01*
X66500000Y-47600000D02*
X66500000Y-58800000D01*
X75400000Y-83800000D02*
X69700000Y-89500000D01*
X69700000Y-89500000D02*
X69700000Y-91200000D01*
X65600000Y-30300000D02*
X67300000Y-32000000D01*
%TO.N,FS3*%
X44000000Y-97500000D02*
X39000000Y-92500000D01*
X39000000Y-92500000D02*
X30400000Y-92500000D01*
X30400000Y-92500000D02*
X29100000Y-91200000D01*
%TO.N,AREF_DIV*%
X86600000Y-35500000D02*
X86632500Y-35530000D01*
X89100000Y-35500000D02*
X89057500Y-35530000D01*
X91500000Y-34500000D02*
X92600000Y-35600000D01*
X82900000Y-39200000D02*
X86600000Y-35500000D01*
X54800000Y-38000000D02*
X55000000Y-38200000D01*
X86600000Y-35500000D02*
X89100000Y-35500000D01*
X93300000Y-35600000D02*
X93300000Y-35560000D01*
X92600000Y-35600000D02*
X93300000Y-35600000D01*
X91300000Y-34500000D02*
X91500000Y-34500000D01*
X91100000Y-34400000D02*
X91200000Y-34400000D01*
X90900000Y-34200000D02*
X91100000Y-34400000D01*
X91200000Y-34400000D02*
X91300000Y-34500000D01*
X54215000Y-38535000D02*
X54200000Y-38500000D01*
X89100000Y-35500000D02*
X89600000Y-35500000D01*
X65000000Y-39200000D02*
X82900000Y-39200000D01*
X63800000Y-38000000D02*
X65000000Y-39200000D01*
%TO.N,IN_L_S2IN*%
X21800000Y-29700000D02*
X21800000Y-30700000D01*
X20800000Y-31500000D02*
X19200000Y-31500000D01*
X27500000Y-29200000D02*
X27400000Y-29200000D01*
X25100000Y-41200000D02*
X25100000Y-40100000D01*
X20900000Y-31400000D02*
X20800000Y-31500000D01*
X27300000Y-29100000D02*
X22400000Y-29100000D01*
X21800000Y-30700000D02*
X21100000Y-31400000D01*
X28200000Y-37000000D02*
X28200000Y-29900000D01*
X21100000Y-31400000D02*
X20900000Y-31400000D01*
X19200000Y-31500000D02*
X16900000Y-33800000D01*
X27400000Y-29200000D02*
X27300000Y-29100000D01*
X25067500Y-41170000D02*
X25100000Y-41200000D01*
X22400000Y-29100000D02*
X21800000Y-29700000D01*
X13100000Y-33000000D02*
X12200000Y-32100000D01*
X28200000Y-29900000D02*
X27500000Y-29200000D01*
X25100000Y-40100000D02*
X28200000Y-37000000D01*
X12200000Y-32100000D02*
X12200000Y-30300000D01*
%TO.N,+3V3A*%
X94100000Y-63800000D02*
X94200000Y-63700000D01*
X93800000Y-63900000D02*
X93900000Y-63900000D01*
X73800000Y-66100000D02*
X73900000Y-66100000D01*
X32000000Y-67900000D02*
X31700000Y-68200000D01*
X72000000Y-65000000D02*
X72700000Y-65000000D01*
X42700000Y-68200000D02*
X48800000Y-68200000D01*
X30800000Y-63800000D02*
X32000000Y-65000000D01*
X52600000Y-63100000D02*
X54500000Y-61200000D01*
X55700000Y-61100000D02*
X57400000Y-59400000D01*
X13800000Y-63900000D02*
X13900000Y-63900000D01*
X74000000Y-66200000D02*
X74100000Y-66200000D01*
X99700000Y-65000000D02*
X112000000Y-65000000D01*
X48800000Y-68200000D02*
X52000000Y-65000000D01*
X74200000Y-66300000D02*
X79200000Y-66300000D01*
X94000000Y-63800000D02*
X94100000Y-63800000D01*
X54500000Y-61200000D02*
X54700000Y-61200000D01*
X73900000Y-66100000D02*
X74000000Y-66200000D01*
X92700000Y-65000000D02*
X93800000Y-63900000D01*
X54700000Y-61200000D02*
X54800000Y-61100000D01*
X92000000Y-65000000D02*
X92700000Y-65000000D01*
X14000000Y-63800000D02*
X30800000Y-63800000D01*
X80600000Y-65000000D02*
X92000000Y-65000000D01*
X74100000Y-66200000D02*
X74200000Y-66300000D01*
X61300000Y-63300000D02*
X68800000Y-63300000D01*
X93900000Y-63900000D02*
X94000000Y-63800000D01*
X72700000Y-65000000D02*
X73800000Y-66100000D01*
X98200000Y-63500000D02*
X99700000Y-65000000D01*
X13900000Y-63900000D02*
X14000000Y-63800000D01*
X12700000Y-65000000D02*
X13800000Y-63900000D01*
X41000000Y-69900000D02*
X42700000Y-68200000D01*
X32000000Y-65000000D02*
X32000000Y-67900000D01*
X74200000Y-66300000D02*
X72300000Y-68200000D01*
X12000000Y-65000000D02*
X12700000Y-65000000D01*
X94200000Y-63700000D02*
X96200000Y-63700000D01*
X54800000Y-61100000D02*
X55700000Y-61100000D01*
X58300000Y-60300000D02*
X61300000Y-63300000D01*
X72300000Y-68200000D02*
X72300000Y-71500000D01*
%TO.N,KNOB3*%
X64600000Y-75100000D02*
X64600000Y-76000000D01*
X54500000Y-65000000D02*
X64600000Y-75100000D01*
%TO.N,FS5*%
X39800000Y-89600000D02*
X39700000Y-89600000D01*
X54900000Y-90100000D02*
X54800000Y-90000000D01*
X70900000Y-92400000D02*
X55800000Y-92400000D01*
X40000000Y-89700000D02*
X39900000Y-89700000D01*
X39700000Y-89600000D02*
X39600000Y-89500000D01*
X54800000Y-90000000D02*
X40300000Y-90000000D01*
X40300000Y-90000000D02*
X40000000Y-89700000D01*
X36000000Y-89500000D02*
X35400000Y-88900000D01*
X55800000Y-92400000D02*
X55800000Y-90900000D01*
X55000000Y-90100000D02*
X54900000Y-90100000D01*
X39900000Y-89700000D02*
X39800000Y-89600000D01*
X39600000Y-89500000D02*
X36000000Y-89500000D01*
X55800000Y-90900000D02*
X55000000Y-90100000D01*
X76000000Y-97500000D02*
X70900000Y-92400000D01*
%TO.N,LP_A*%
X133900000Y-69500000D02*
X133800000Y-69400000D01*
X77400000Y-63800000D02*
X77300000Y-63700000D01*
X66700000Y-64600000D02*
X66600000Y-64600000D01*
X73400000Y-63300000D02*
X69700000Y-63300000D01*
X137500000Y-65900000D02*
X133900000Y-69500000D01*
X65100000Y-66100000D02*
X58900000Y-66100000D01*
X73800000Y-63700000D02*
X73400000Y-63300000D01*
X41800000Y-84200000D02*
X40500000Y-85500000D01*
X69700000Y-63300000D02*
X68500000Y-64500000D01*
X40600000Y-75500000D02*
X40600000Y-76600000D01*
X133800000Y-69400000D02*
X133700000Y-69400000D01*
X77500000Y-63800000D02*
X77400000Y-63800000D01*
X66800000Y-64500000D02*
X66700000Y-64600000D01*
X41800000Y-77800000D02*
X41800000Y-84200000D01*
X40600000Y-76600000D02*
X41800000Y-77800000D01*
X83100000Y-69300000D02*
X77700000Y-63900000D01*
X133700000Y-69400000D02*
X133600000Y-69300000D01*
X51800000Y-71400000D02*
X44700000Y-71400000D01*
X77300000Y-63700000D02*
X73800000Y-63700000D01*
X44700000Y-71400000D02*
X40600000Y-75500000D01*
X133600000Y-69300000D02*
X83100000Y-69300000D01*
X66600000Y-64600000D02*
X65100000Y-66100000D01*
X77600000Y-63900000D02*
X77500000Y-63800000D01*
X137500000Y-65000000D02*
X137500000Y-65900000D01*
X68500000Y-64500000D02*
X66800000Y-64500000D01*
X77700000Y-63900000D02*
X77600000Y-63900000D01*
%TO.N,LP_B*%
X97800000Y-99300000D02*
X52400000Y-99300000D01*
X142900000Y-75900000D02*
X134500000Y-84300000D01*
X105900000Y-91200000D02*
X97800000Y-99300000D01*
X134400000Y-86100000D02*
X134400000Y-86300000D01*
X129500000Y-91200000D02*
X105900000Y-91200000D01*
X142900000Y-66400000D02*
X142900000Y-75900000D01*
X142500000Y-66000000D02*
X142900000Y-66400000D01*
X142500000Y-65000000D02*
X142500000Y-66000000D01*
X52400000Y-99300000D02*
X46700000Y-93600000D01*
X134500000Y-84300000D02*
X134500000Y-86000000D01*
X134400000Y-86300000D02*
X129500000Y-91200000D01*
X46700000Y-93600000D02*
X45600000Y-93600000D01*
X134500000Y-86000000D02*
X134400000Y-86100000D01*
%TO.N,IN_R_BIAS*%
X15600000Y-34200000D02*
X18600000Y-31200000D01*
X16300000Y-39800000D02*
X15500000Y-39000000D01*
X3800000Y-46900000D02*
X3807500Y-46870000D01*
X16400000Y-42800000D02*
X16400000Y-42600000D01*
X18600000Y-31200000D02*
X18600000Y-30300000D01*
X15500000Y-39000000D02*
X15500000Y-34400000D01*
X15500000Y-34400000D02*
X15600000Y-34300000D01*
X12300000Y-46900000D02*
X11100000Y-46900000D01*
X15700000Y-40400000D02*
X16300000Y-39800000D01*
X12307500Y-46870000D02*
X12300000Y-46900000D01*
X12300000Y-46900000D02*
X16400000Y-42800000D01*
X15700000Y-41900000D02*
X15700000Y-40400000D01*
X15600000Y-34300000D02*
X15600000Y-34200000D01*
X4400000Y-46900000D02*
X3800000Y-46900000D01*
X16400000Y-42600000D02*
X15700000Y-41900000D01*
%TO.N,IN_L_DIV*%
X42100000Y-44600000D02*
X42100000Y-41200000D01*
X42100000Y-41200000D02*
X42080000Y-41200000D01*
X19100000Y-41200000D02*
X18400000Y-41200000D01*
X34900000Y-48400000D02*
X36900000Y-48400000D01*
X33400000Y-49900000D02*
X34900000Y-48400000D01*
D37*
X20600000Y-41000000D02*
X19200000Y-39600000D01*
D36*
X19200000Y-38500000D02*
X19500000Y-38200000D01*
X19200000Y-39600000D02*
X19200000Y-38500000D01*
X18400000Y-41200000D02*
X18392500Y-41170000D01*
X22000000Y-49600000D02*
X22300000Y-49900000D01*
X20800000Y-45300000D02*
X19700000Y-46400000D01*
X20800000Y-41200000D02*
X20600000Y-41000000D01*
X20817500Y-41170000D02*
X20800000Y-41200000D01*
X41000000Y-45700000D02*
X42100000Y-44600000D01*
X19700000Y-46400000D02*
X19700000Y-47300000D01*
X20800000Y-41200000D02*
X20800000Y-45300000D01*
X36900000Y-48400000D02*
X37100000Y-48200000D01*
X22300000Y-49900000D02*
X33400000Y-49900000D01*
X37100000Y-48200000D02*
X38500000Y-48200000D01*
%TO.N,OUT_L_TIP*%
X46000000Y-32500000D02*
X46000000Y-37400000D01*
X63700000Y-18400000D02*
X63700000Y-18300000D01*
X63700000Y-12000000D02*
X63600000Y-11900000D01*
X62000000Y-15500000D02*
X63800000Y-13700000D01*
X59200000Y-30300000D02*
X62000000Y-27500000D01*
X62000000Y-21900000D02*
X63500000Y-20400000D01*
X57500000Y-28600000D02*
X49900000Y-28600000D01*
X63500000Y-18100000D02*
X63500000Y-18000000D01*
X63800000Y-13700000D02*
X63800000Y-12200000D01*
X63500000Y-20400000D02*
X63500000Y-20300000D01*
X62000000Y-27500000D02*
X62000000Y-21900000D01*
X63800000Y-19900000D02*
X63800000Y-18500000D01*
X63500000Y-18000000D02*
X62000000Y-16500000D01*
X63700000Y-20100000D02*
X63700000Y-20000000D01*
X62000000Y-16500000D02*
X62000000Y-15500000D01*
X63800000Y-12200000D02*
X63700000Y-12100000D01*
X63600000Y-11800000D02*
X62000000Y-10200000D01*
X61600000Y-41200000D02*
X61567500Y-41170000D01*
X63700000Y-18300000D02*
X63500000Y-18100000D01*
X59200000Y-30300000D02*
X57500000Y-28600000D01*
X63600000Y-11900000D02*
X63600000Y-11800000D01*
X62000000Y-10200000D02*
X62000000Y-6500000D01*
X49900000Y-28600000D02*
X46000000Y-32500000D01*
X63800000Y-18500000D02*
X63700000Y-18400000D01*
X63500000Y-20300000D02*
X63700000Y-20100000D01*
X63700000Y-12100000D02*
X63700000Y-12000000D01*
X63700000Y-20000000D02*
X63800000Y-19900000D01*
X60500000Y-42300000D02*
X61600000Y-41200000D01*
%TO.N,OUT_L_C*%
X48800000Y-41200000D02*
X48817500Y-41170000D01*
X48800000Y-39800000D02*
X48800000Y-41200000D01*
X47900000Y-38900000D02*
X48800000Y-39800000D01*
X47900000Y-34400000D02*
X47900000Y-38900000D01*
X48800000Y-33500000D02*
X47900000Y-34400000D01*
X48800000Y-32300000D02*
X48800000Y-33500000D01*
X50800000Y-30300000D02*
X48800000Y-32300000D01*
%TO.N,OUT_L_DAC*%
X49600000Y-30900000D02*
X48400000Y-32100000D01*
X48300000Y-33400000D02*
X47500000Y-34200000D01*
X47500000Y-34200000D02*
X47500000Y-39100000D01*
X52800000Y-30300000D02*
X51600000Y-29100000D01*
X62900000Y-60100000D02*
X65500000Y-62700000D01*
X48000000Y-44800000D02*
X55300000Y-52100000D01*
X48300000Y-32300000D02*
X48300000Y-33400000D01*
X48000000Y-39600000D02*
X48000000Y-44800000D01*
X49600000Y-29500000D02*
X49600000Y-30900000D01*
X55300000Y-52100000D02*
X58500000Y-52100000D01*
X48400000Y-32100000D02*
X48400000Y-32200000D01*
X47500000Y-39100000D02*
X48000000Y-39600000D01*
X65500000Y-62700000D02*
X77400000Y-62700000D01*
X72200000Y-86100000D02*
X67200000Y-91100000D01*
X77400000Y-62700000D02*
X81700000Y-67000000D01*
X51600000Y-29100000D02*
X50000000Y-29100000D01*
X48400000Y-32200000D02*
X48300000Y-32300000D01*
X50000000Y-29100000D02*
X49600000Y-29500000D01*
%TO.N,OUT_R_TIP*%
X63200000Y-21500000D02*
X63200000Y-21300000D01*
X63900000Y-17800000D02*
X62700000Y-16600000D01*
X64200000Y-18300000D02*
X64100000Y-18200000D01*
X61600000Y-15400000D02*
X61600000Y-15300000D01*
X64100000Y-18200000D02*
X64100000Y-18100000D01*
X63900000Y-17900000D02*
X63900000Y-17800000D01*
X62700000Y-16600000D02*
X62700000Y-16500000D01*
X60300000Y-44000000D02*
X61600000Y-44000000D01*
X61600000Y-44000000D02*
X61567500Y-44020000D01*
X64100000Y-18100000D02*
X63900000Y-17900000D01*
X62000000Y-14900000D02*
X62000000Y-12800000D01*
X61500000Y-16500000D02*
X61500000Y-15500000D01*
X70600000Y-31600000D02*
X70600000Y-36000000D01*
X64200000Y-20300000D02*
X64200000Y-18300000D01*
X61500000Y-15500000D02*
X61600000Y-15400000D01*
X70600000Y-36000000D02*
X72000000Y-37400000D01*
X71900000Y-30300000D02*
X70600000Y-31600000D01*
X72000000Y-30300000D02*
X63200000Y-21500000D01*
X61600000Y-15300000D02*
X62000000Y-14900000D01*
X63200000Y-21300000D02*
X64200000Y-20300000D01*
%TO.N,LED1*%
X48300000Y-89300000D02*
X60400000Y-77200000D01*
X60400000Y-77200000D02*
X98600000Y-77200000D01*
X98600000Y-77200000D02*
X100800000Y-75000000D01*
%TO.N,+9V_RC1*%
D38*
X118700000Y-32600000D02*
X118742500Y-32560000D01*
X121300000Y-32600000D02*
X121267500Y-32560000D01*
X95100000Y-40800000D02*
X98900000Y-37000000D01*
X118700000Y-32600000D02*
X121300000Y-32600000D01*
X98900000Y-37000000D02*
X114300000Y-37000000D01*
X114300000Y-37000000D02*
X118700000Y-32600000D01*
%TO.N,OUT_L_INN*%
D36*
X50600000Y-41200000D02*
X50642500Y-41170000D01*
X53500000Y-41500000D02*
X52400000Y-42600000D01*
X63500000Y-42300000D02*
X64700000Y-42300000D01*
X53067500Y-41170000D02*
X53100000Y-41200000D01*
X54400000Y-42200000D02*
X54500000Y-42300000D01*
X49300000Y-36000000D02*
X49265000Y-35995000D01*
X62100000Y-45100000D02*
X62500000Y-44700000D01*
X53100000Y-41200000D02*
X53300000Y-41200000D01*
X56800000Y-45100000D02*
X62100000Y-45100000D01*
X52000000Y-42900000D02*
X51500000Y-42900000D01*
X54500000Y-42300000D02*
X54800000Y-42300000D01*
X53300000Y-41200000D02*
X54300000Y-42200000D01*
X56400000Y-43900000D02*
X56400000Y-44700000D01*
X54300000Y-42200000D02*
X54400000Y-42200000D01*
X49100000Y-36000000D02*
X49300000Y-36000000D01*
X64700000Y-42300000D02*
X65800000Y-41200000D01*
X52300000Y-42600000D02*
X52000000Y-42900000D01*
X52400000Y-42600000D02*
X52300000Y-42600000D01*
X56400000Y-44700000D02*
X56800000Y-45100000D01*
X54800000Y-42300000D02*
X56400000Y-43900000D01*
X62500000Y-43300000D02*
X63500000Y-42300000D01*
X62500000Y-44700000D02*
X62500000Y-43300000D01*
X48700000Y-35600000D02*
X49100000Y-36000000D01*
X50600000Y-41900000D02*
X50600000Y-41200000D01*
%TO.N,OUT_L_AMP*%
X50100000Y-40100000D02*
X49700000Y-40500000D01*
X49300000Y-34700000D02*
X49265000Y-34725000D01*
X53400000Y-46500000D02*
X53500000Y-46600000D01*
X64900000Y-40500000D02*
X65300000Y-40100000D01*
X49700000Y-40500000D02*
X49700000Y-42100000D01*
X57300000Y-41200000D02*
X57317500Y-41170000D01*
X54892500Y-41170000D02*
X54900000Y-41200000D01*
X53500000Y-46600000D02*
X58800000Y-46600000D01*
X65300000Y-40100000D02*
X66600000Y-40100000D01*
X53600000Y-39200000D02*
X53200000Y-39200000D01*
X53300000Y-46500000D02*
X53400000Y-46500000D01*
X54900000Y-41200000D02*
X57300000Y-41200000D01*
X51100000Y-40100000D02*
X50100000Y-40100000D01*
X50600000Y-35600000D02*
X49700000Y-34700000D01*
X52100000Y-45300000D02*
X53300000Y-46500000D01*
X59100000Y-46900000D02*
X63700000Y-46900000D01*
X64900000Y-41200000D02*
X64900000Y-40500000D01*
X64700000Y-41400000D02*
X64900000Y-41200000D01*
X50900000Y-45300000D02*
X52100000Y-45300000D01*
X49700000Y-42100000D02*
X49100000Y-42700000D01*
X66600000Y-40100000D02*
X67700000Y-41200000D01*
X52600000Y-38600000D02*
X51100000Y-40100000D01*
X63700000Y-46900000D02*
X64400000Y-46200000D01*
X54000000Y-39600000D02*
X53600000Y-39200000D01*
X50600000Y-36600000D02*
X50600000Y-35600000D01*
X54900000Y-41200000D02*
X54600000Y-40900000D01*
X58800000Y-46600000D02*
X59100000Y-46900000D01*
X53200000Y-39200000D02*
X50600000Y-36600000D01*
X49700000Y-34700000D02*
X49300000Y-34700000D01*
%TO.N,FS4*%
X40500000Y-92400000D02*
X40500000Y-90800000D01*
X39600000Y-90000000D02*
X32800000Y-90000000D01*
X60000000Y-97500000D02*
X54900000Y-92400000D01*
X54900000Y-92400000D02*
X40500000Y-92400000D01*
X39800000Y-90100000D02*
X39700000Y-90100000D01*
X40500000Y-90800000D02*
X39800000Y-90100000D01*
X39700000Y-90100000D02*
X39600000Y-90000000D01*
X32800000Y-90000000D02*
X31600000Y-91200000D01*
%TO.N,FS1*%
X18300000Y-91200000D02*
X12000000Y-97500000D01*
X24000000Y-91200000D02*
X18300000Y-91200000D01*
%TO.N,FS2*%
X26500000Y-91200000D02*
X28000000Y-92700000D01*
X28000000Y-92700000D02*
X28000000Y-97500000D01*
%TO.N,HP_A*%
X52200000Y-74000000D02*
X52200000Y-73200000D01*
X53400000Y-64400000D02*
X53400000Y-64300000D01*
X52300000Y-73100000D02*
X52300000Y-72300000D01*
X52400000Y-72200000D02*
X52400000Y-71600000D01*
X50800000Y-75500000D02*
X50900000Y-75400000D01*
X52300000Y-72300000D02*
X52400000Y-72200000D01*
X53400000Y-64300000D02*
X58200000Y-59500000D01*
X52500000Y-71500000D02*
X52500000Y-70600000D01*
X50900000Y-75400000D02*
X50900000Y-75300000D01*
X50700000Y-77100000D02*
X50700000Y-75700000D01*
X53300000Y-69800000D02*
X53300000Y-64500000D01*
X53300000Y-64500000D02*
X53400000Y-64400000D01*
X52400000Y-71600000D02*
X52500000Y-71500000D01*
X38100000Y-88800000D02*
X49700000Y-77200000D01*
X132000000Y-59500000D02*
X137500000Y-54000000D01*
X52200000Y-73200000D02*
X52300000Y-73100000D01*
X50800000Y-75600000D02*
X50800000Y-75500000D01*
X52500000Y-70600000D02*
X53300000Y-69800000D01*
X50700000Y-75700000D02*
X50800000Y-75600000D01*
X58200000Y-59500000D02*
X132000000Y-59500000D01*
X49700000Y-77200000D02*
X50600000Y-77200000D01*
X50900000Y-75300000D02*
X52200000Y-74000000D01*
X50600000Y-77200000D02*
X50700000Y-77100000D01*
%TO.N,HP_B*%
X59200000Y-98900000D02*
X97600000Y-98900000D01*
X133600000Y-84400000D02*
X133800000Y-84400000D01*
X133800000Y-84400000D02*
X141400000Y-76800000D01*
X141500000Y-64500000D02*
X141500000Y-64400000D01*
X40000000Y-92500000D02*
X40400000Y-92900000D01*
X141500000Y-64400000D02*
X142500000Y-63400000D01*
X39200000Y-91200000D02*
X40000000Y-92000000D01*
X97600000Y-98900000D02*
X112000000Y-84500000D01*
X53200000Y-92900000D02*
X59200000Y-98900000D01*
X112000000Y-84500000D02*
X133500000Y-84500000D01*
X40400000Y-92900000D02*
X53200000Y-92900000D01*
X40000000Y-92000000D02*
X40000000Y-92500000D01*
X142500000Y-63400000D02*
X142500000Y-54000000D01*
X141400000Y-76800000D02*
X141400000Y-64600000D01*
X141400000Y-64600000D02*
X141500000Y-64500000D01*
X133500000Y-84500000D02*
X133600000Y-84400000D01*
%TO.N,LED2*%
X61500000Y-78600000D02*
X66200000Y-78600000D01*
X101400000Y-78800000D02*
X101700000Y-78500000D01*
X100200000Y-78800000D02*
X101400000Y-78800000D01*
X101700000Y-78500000D02*
X101700000Y-77200000D01*
X50800000Y-89300000D02*
X61500000Y-78600000D01*
X104000000Y-76100000D02*
X105100000Y-75000000D01*
X99700000Y-78300000D02*
X100200000Y-78800000D01*
X105100000Y-75000000D02*
X105057500Y-75000000D01*
X68300000Y-78300000D02*
X99700000Y-78300000D01*
X102800000Y-76100000D02*
X104000000Y-76100000D01*
X67500000Y-79100000D02*
X68300000Y-78300000D01*
X101700000Y-77200000D02*
X102800000Y-76100000D01*
%TO.N,LED3*%
X106000000Y-78400000D02*
X106000000Y-77100000D01*
X108200000Y-76100000D02*
X109300000Y-75000000D01*
X107000000Y-76100000D02*
X108200000Y-76100000D01*
X53200000Y-89300000D02*
X62500000Y-80000000D01*
X105400000Y-78900000D02*
X105500000Y-78900000D01*
X62500000Y-80000000D02*
X64800000Y-80000000D01*
X104400000Y-79900000D02*
X105400000Y-78900000D01*
X66700000Y-79900000D02*
X104400000Y-79900000D01*
X105500000Y-78900000D02*
X106000000Y-78400000D01*
X106000000Y-77100000D02*
X107000000Y-76100000D01*
X65700000Y-80900000D02*
X66700000Y-79900000D01*
%TO.N,UART_SEED_TX*%
X114300000Y-82700000D02*
X117400000Y-79600000D01*
X64400000Y-85800000D02*
X67400000Y-82800000D01*
X62400000Y-85800000D02*
X64400000Y-85800000D01*
X128700000Y-81300000D02*
X130100000Y-81300000D01*
X67400000Y-82800000D02*
X67500000Y-82800000D01*
X67600000Y-82700000D02*
X114300000Y-82700000D01*
X117400000Y-79600000D02*
X117500000Y-79600000D01*
X131100000Y-85800000D02*
X133200000Y-85800000D01*
X117600000Y-79500000D02*
X126900000Y-79500000D01*
X130400000Y-85100000D02*
X131100000Y-85800000D01*
X67500000Y-82800000D02*
X67600000Y-82700000D01*
X117500000Y-79600000D02*
X117600000Y-79500000D01*
X57000000Y-91200000D02*
X62400000Y-85800000D01*
X126900000Y-79500000D02*
X128700000Y-81300000D01*
%TO.N,UART_SEED_RX*%
X132000000Y-82000000D02*
X133200000Y-83200000D01*
X116300000Y-83200000D02*
X117300000Y-82200000D01*
X117300000Y-82200000D02*
X117400000Y-82200000D01*
X67600000Y-83200000D02*
X116300000Y-83200000D01*
X59600000Y-91200000D02*
X67600000Y-83200000D01*
X117700000Y-82000000D02*
X132000000Y-82000000D01*
X117500000Y-82100000D02*
X117600000Y-82100000D01*
X117400000Y-82200000D02*
X117500000Y-82100000D01*
X117600000Y-82100000D02*
X117700000Y-82000000D01*
%TO.N,IN_L_CODEC*%
X41200000Y-47600000D02*
X47400000Y-53800000D01*
X37800000Y-74600000D02*
X37800000Y-74800000D01*
X62100000Y-89600000D02*
X62100000Y-91200000D01*
X38000000Y-75700000D02*
X38000000Y-76300000D01*
X37800000Y-74800000D02*
X37900000Y-74900000D01*
X35500000Y-72200000D02*
X35500000Y-72300000D01*
X35300000Y-72000000D02*
X35500000Y-72200000D01*
X37900000Y-75600000D02*
X38000000Y-75700000D01*
X38200000Y-76600000D02*
X38200000Y-76700000D01*
X40000000Y-45800000D02*
X40200000Y-45800000D01*
X7600000Y-44000000D02*
X8100000Y-44000000D01*
X2000000Y-45600000D02*
X2700000Y-44900000D01*
X41200000Y-46800000D02*
X41200000Y-47600000D01*
X38300000Y-67500000D02*
X35300000Y-70500000D01*
X46700000Y-81100000D02*
X55600000Y-81100000D01*
X35392500Y-41170000D02*
X35400000Y-41200000D01*
X38200000Y-76700000D02*
X41200000Y-79700000D01*
X47400000Y-54000000D02*
X38300000Y-63100000D01*
X34300000Y-52900000D02*
X4200000Y-52900000D01*
X63000000Y-88700000D02*
X62100000Y-89600000D01*
X2000000Y-50700000D02*
X2000000Y-45600000D01*
X38100000Y-76400000D02*
X38100000Y-76500000D01*
X38100000Y-76500000D02*
X38200000Y-76600000D01*
X4200000Y-52900000D02*
X2000000Y-50700000D01*
X38000000Y-76300000D02*
X38100000Y-76400000D01*
X35500000Y-72300000D02*
X37800000Y-74600000D01*
X6500000Y-42900000D02*
X7600000Y-44000000D01*
X35300000Y-70500000D02*
X35300000Y-72000000D01*
X37900000Y-74900000D02*
X37900000Y-75600000D01*
X8100000Y-44000000D02*
X8090000Y-44050000D01*
X42800000Y-85000000D02*
X46700000Y-81100000D01*
X40200000Y-45800000D02*
X41200000Y-46800000D01*
X35400000Y-41200000D02*
X40000000Y-45800000D01*
X38400000Y-52000000D02*
X35200000Y-52000000D01*
X41200000Y-79700000D02*
X41200000Y-83400000D01*
X2700000Y-44900000D02*
X2700000Y-43200000D01*
X47400000Y-53800000D02*
X47400000Y-54000000D01*
X42000000Y-48400000D02*
X38400000Y-52000000D01*
%TO.N,KNOB1*%
X10700000Y-66000000D02*
X11000000Y-66300000D01*
X61000000Y-65000000D02*
X57300000Y-61300000D01*
X10700000Y-64000000D02*
X10700000Y-66000000D01*
X53300000Y-57300000D02*
X48500000Y-62100000D01*
X30300000Y-63200000D02*
X11500000Y-63200000D01*
X62900000Y-65000000D02*
X61000000Y-65000000D01*
X13200000Y-66300000D02*
X14500000Y-65000000D01*
X63400000Y-65500000D02*
X62900000Y-65000000D01*
X11500000Y-63200000D02*
X10700000Y-64000000D01*
X11000000Y-66300000D02*
X13200000Y-66300000D01*
X32700000Y-60800000D02*
X30300000Y-63200000D01*
X48500000Y-62100000D02*
X40200000Y-62100000D01*
%TO.N,KNOB2*%
X58300000Y-64600000D02*
X57500000Y-63800000D01*
X54900000Y-61900000D02*
X53100000Y-63700000D01*
X53100000Y-63700000D02*
X35800000Y-63700000D01*
X57300000Y-63700000D02*
X56900000Y-63700000D01*
X58300000Y-67100000D02*
X58300000Y-64600000D01*
X57500000Y-63800000D02*
X57400000Y-63800000D01*
X56900000Y-63700000D02*
X55900000Y-62700000D01*
X57400000Y-63800000D02*
X57300000Y-63700000D01*
X35800000Y-63700000D02*
X34500000Y-65000000D01*
X67200000Y-76000000D02*
X58300000Y-67100000D01*
%TO.N,KNOB4*%
X71000000Y-63700000D02*
X73200000Y-63700000D01*
X62000000Y-69800000D02*
X66800000Y-65000000D01*
X73200000Y-63700000D02*
X74500000Y-65000000D01*
X66800000Y-65000000D02*
X69700000Y-65000000D01*
X69700000Y-65000000D02*
X71000000Y-63700000D01*
%TO.N,KNOB5*%
X90900000Y-68600000D02*
X94500000Y-65000000D01*
X77800000Y-81700000D02*
X78900000Y-80600000D01*
X59600000Y-77000000D02*
X58300000Y-78300000D01*
X64900000Y-81700000D02*
X77800000Y-81700000D01*
X59600000Y-76000000D02*
X59600000Y-77000000D01*
X64300000Y-82300000D02*
X64900000Y-81700000D01*
X78900000Y-80600000D02*
X90900000Y-80600000D01*
%TO.N,KNOB6*%
X99200000Y-80300000D02*
X104600000Y-80300000D01*
X108300000Y-78200000D02*
X110400000Y-76100000D01*
X97400000Y-82100000D02*
X99200000Y-80300000D01*
X65100000Y-84500000D02*
X67500000Y-82100000D01*
X114500000Y-68600000D02*
X114500000Y-65000000D01*
X107400000Y-78800000D02*
X107500000Y-78800000D01*
X111600000Y-76100000D02*
X114500000Y-73200000D01*
X114500000Y-73200000D02*
X114500000Y-69900000D01*
X108000000Y-78300000D02*
X108100000Y-78300000D01*
X67500000Y-82100000D02*
X97400000Y-82100000D01*
X105800000Y-79200000D02*
X105900000Y-79200000D01*
X104600000Y-80300000D02*
X105600000Y-79300000D01*
X107300000Y-78900000D02*
X107400000Y-78800000D01*
X106200000Y-78900000D02*
X107300000Y-78900000D01*
X105700000Y-79300000D02*
X105800000Y-79200000D01*
X62100000Y-84500000D02*
X65100000Y-84500000D01*
X108100000Y-78300000D02*
X108200000Y-78200000D01*
X105900000Y-79200000D02*
X106200000Y-78900000D01*
X105600000Y-79300000D02*
X105700000Y-79300000D01*
X108200000Y-78200000D02*
X108300000Y-78200000D01*
X107500000Y-78800000D02*
X108000000Y-78300000D01*
X110400000Y-76100000D02*
X111600000Y-76100000D01*
%TO.N,LED5*%
X58300000Y-75600000D02*
X59100000Y-74800000D01*
X66900000Y-74800000D02*
X99200000Y-74800000D01*
X99200000Y-74800000D02*
X99600000Y-75200000D01*
X65000000Y-72900000D02*
X66900000Y-74800000D01*
X57000000Y-77800000D02*
X58300000Y-76500000D01*
X45600000Y-77800000D02*
X46900000Y-79100000D01*
X43600000Y-77800000D02*
X45600000Y-77800000D01*
X59800000Y-74800000D02*
X61600000Y-73000000D01*
X41800000Y-76000000D02*
X43600000Y-77800000D01*
X59100000Y-74800000D02*
X59800000Y-74800000D01*
X105100000Y-77800000D02*
X105057500Y-77790000D01*
X50000000Y-77800000D02*
X57000000Y-77800000D01*
X103600000Y-76800000D02*
X104600000Y-77800000D01*
X48700000Y-79100000D02*
X50000000Y-77800000D01*
X104600000Y-77800000D02*
X105100000Y-77800000D01*
X58300000Y-76500000D02*
X58300000Y-75600000D01*
%TO.N,+5V_SEED*%
D38*
X26500000Y-76000000D02*
X36000000Y-66500000D01*
X100500000Y-32400000D02*
X102800000Y-32400000D01*
X92000000Y-42900000D02*
X108400000Y-42900000D01*
X50000000Y-62900000D02*
X67400000Y-45500000D01*
D36*
X96400000Y-36500000D02*
X96400000Y-34900000D01*
D38*
X96500000Y-34800000D02*
X96500000Y-34700000D01*
X96400000Y-34900000D02*
X96500000Y-34800000D01*
X48800000Y-66500000D02*
X48800000Y-64400000D01*
X100300000Y-32600000D02*
X100322500Y-32560000D01*
X102800000Y-32400000D02*
X102780000Y-32409999D01*
X99100000Y-32600000D02*
X100300000Y-32600000D01*
X36000000Y-66500000D02*
X48800000Y-66500000D01*
D36*
X98600000Y-33100000D02*
X99100000Y-32600000D01*
D38*
X108400000Y-42900000D02*
X110500000Y-40800000D01*
X100300000Y-32600000D02*
X100500000Y-32400000D01*
X91000000Y-41900000D02*
X92000000Y-42900000D01*
X67400000Y-45500000D02*
X87400000Y-45500000D01*
X87400000Y-45500000D02*
X96400000Y-36500000D01*
%TO.N,IN_R_S2IN*%
D36*
X25500000Y-34100000D02*
X25000000Y-33600000D01*
X25100000Y-46900000D02*
X25000000Y-46800000D01*
X24200000Y-40400000D02*
X25500000Y-39100000D01*
X25000000Y-46800000D02*
X25000000Y-42700000D01*
X25500000Y-39100000D02*
X25500000Y-34100000D01*
X24200000Y-41900000D02*
X24200000Y-40400000D01*
X25000000Y-42700000D02*
X24200000Y-41900000D01*
X25067500Y-46870000D02*
X25100000Y-46900000D01*
X25000000Y-33600000D02*
X25000000Y-30300000D01*
%TO.N,IN_R_INN*%
X16000000Y-48400000D02*
X26300000Y-48400000D01*
X3800000Y-49750000D02*
X3800000Y-49800000D01*
X26300000Y-48400000D02*
X26500000Y-48600000D01*
X22400000Y-36900000D02*
X22000000Y-37300000D01*
X26900000Y-46900000D02*
X26892500Y-46870000D01*
X28800000Y-44200000D02*
X28800000Y-42900000D01*
X5600000Y-48000000D02*
X15500000Y-48000000D01*
X21800000Y-37300000D02*
X21805000Y-37265000D01*
X22000000Y-37300000D02*
X21800000Y-37300000D01*
X26600000Y-46400000D02*
X28800000Y-44200000D01*
X27700000Y-45300000D02*
X29300000Y-46900000D01*
X15800000Y-48300000D02*
X15900000Y-48300000D01*
X26500000Y-47300000D02*
X26900000Y-46900000D01*
X15500000Y-48000000D02*
X15800000Y-48300000D01*
X15900000Y-48300000D02*
X16000000Y-48400000D01*
X3800000Y-49800000D02*
X5600000Y-48000000D01*
X26900000Y-46900000D02*
X26600000Y-46600000D01*
X26600000Y-46600000D02*
X26600000Y-46400000D01*
X29300000Y-46900000D02*
X29317500Y-46870000D01*
%TO.N,IN_R_OPIN*%
X14132500Y-46870000D02*
X14100000Y-46900000D01*
X15000000Y-46900000D02*
X16000000Y-47900000D01*
D37*
X17500000Y-48000000D02*
X17500000Y-46300000D01*
D36*
X36700000Y-48000000D02*
X37800000Y-46900000D01*
X20000000Y-41600000D02*
X20000000Y-41200000D01*
X14100000Y-46900000D02*
X15000000Y-46900000D01*
X16000000Y-47900000D02*
X16100000Y-47900000D01*
X17500000Y-46300000D02*
X17500000Y-44100000D01*
X17400000Y-37600000D02*
X17200000Y-37600000D01*
X20000000Y-41200000D02*
X18800000Y-40000000D01*
X17500000Y-44100000D02*
X20000000Y-41600000D01*
X17200000Y-37600000D02*
X16900000Y-37300000D01*
X16200000Y-48000000D02*
X36700000Y-48000000D01*
X16900000Y-37300000D02*
X16855000Y-37265000D01*
X18800000Y-40000000D02*
X18800000Y-37700000D01*
X16100000Y-47900000D02*
X16200000Y-48000000D01*
%TO.N,IN_R_DIV*%
X20817500Y-46870000D02*
X20800000Y-46900000D01*
X42600000Y-42600000D02*
X42600000Y-44600000D01*
X28900000Y-32100000D02*
X34700000Y-37900000D01*
X34700000Y-37900000D02*
X41300000Y-37900000D01*
X18400000Y-46900000D02*
X18392500Y-46870000D01*
X42100000Y-45200000D02*
X42100000Y-46900000D01*
X20100000Y-43300000D02*
X18400000Y-45000000D01*
X20800000Y-46900000D02*
X22000000Y-45700000D01*
X24500000Y-36400000D02*
X23900000Y-35800000D01*
X18400000Y-45000000D02*
X18400000Y-46900000D01*
X23900000Y-35700000D02*
X23800000Y-35600000D01*
X23800000Y-35600000D02*
X23800000Y-34200000D01*
X42600000Y-44600000D02*
X42500000Y-44700000D01*
X42500000Y-44800000D02*
X42100000Y-45200000D01*
X23800000Y-34200000D02*
X24300000Y-33700000D01*
X24000000Y-39700000D02*
X24500000Y-39200000D01*
X24300000Y-33700000D02*
X24300000Y-33500000D01*
X42500000Y-44700000D02*
X42500000Y-44800000D01*
X27000000Y-31900000D02*
X27000000Y-30300000D01*
X23900000Y-35800000D02*
X23900000Y-35700000D01*
X22000000Y-45700000D02*
X22000000Y-42400000D01*
X25600000Y-33300000D02*
X27000000Y-31900000D01*
X24500000Y-39200000D02*
X24500000Y-36400000D01*
X42100000Y-46900000D02*
X42080000Y-46900000D01*
%TO.N,LED5_K*%
X110200000Y-75700000D02*
X108100000Y-77800000D01*
X96500000Y-71500000D02*
X107400000Y-71500000D01*
X108100000Y-77800000D02*
X106900000Y-77800000D01*
X110200000Y-74300000D02*
X110200000Y-75700000D01*
X107400000Y-71500000D02*
X110200000Y-74300000D01*
%TO.N,VIN_D*%
X95200000Y-27600000D02*
X98600000Y-27600000D01*
D40*
X94900000Y-27500000D02*
X95100000Y-27500000D01*
X92800000Y-26000000D02*
X93000000Y-26000000D01*
X93500000Y-26100000D02*
X94900000Y-27500000D01*
X98600000Y-27600000D02*
X100400000Y-25800000D01*
X91400000Y-25000000D02*
X92200000Y-25800000D01*
X100400000Y-25800000D02*
X101300000Y-24900000D01*
X100400000Y-25800000D02*
X100430000Y-25800000D01*
X101300000Y-24900000D02*
X103500000Y-24900000D01*
X93000000Y-26000000D02*
X93100000Y-26100000D01*
X92200000Y-25800000D02*
X92600000Y-25800000D01*
X92600000Y-25800000D02*
X92800000Y-26000000D01*
X95100000Y-27500000D02*
X95200000Y-27600000D01*
X93100000Y-26100000D02*
X93500000Y-26100000D01*
%TO.N,IN_R_TIP*%
D36*
X20600000Y-30300000D02*
X28200000Y-22700000D01*
X30000000Y-16500000D02*
X30000000Y-12800000D01*
X28200000Y-22700000D02*
X28200000Y-18500000D01*
X28200000Y-18500000D02*
X28300000Y-18400000D01*
X28500000Y-18000000D02*
X30000000Y-16500000D01*
X28300000Y-18400000D02*
X28300000Y-18300000D01*
X28300000Y-18300000D02*
X28500000Y-18100000D01*
X28500000Y-18100000D02*
X28500000Y-18000000D01*
%TO.N,VIN_F*%
D40*
X92700000Y-24600000D02*
X92000000Y-23900000D01*
X89100000Y-26000000D02*
X89137500Y-26000000D01*
D36*
X92800000Y-24600000D02*
X93490000Y-25000000D01*
D40*
X90800000Y-23900000D02*
X89100000Y-25600000D01*
X89100000Y-25600000D02*
X89100000Y-26000000D01*
X92000000Y-23900000D02*
X90800000Y-23900000D01*
%TO.N,VIN_RAW*%
X103400000Y-7500000D02*
X134000000Y-7500000D01*
X84862500Y-26000000D02*
X84900000Y-26000000D01*
X84900000Y-26000000D02*
X103400000Y-7500000D01*
%TO.N,IN_R_S2OUT*%
D36*
X31100000Y-46900000D02*
X31100000Y-42500000D01*
X25700000Y-48900000D02*
X26100000Y-49300000D01*
X33600000Y-46900000D02*
X33567500Y-46870000D01*
X20400000Y-35000000D02*
X21400000Y-36000000D01*
D37*
X5700000Y-49800000D02*
X7100000Y-48400000D01*
D36*
X5700000Y-49750000D02*
X5700000Y-49800000D01*
X31100000Y-46900000D02*
X31142500Y-46870000D01*
X20400000Y-34000000D02*
X20400000Y-35000000D01*
X15700000Y-48700000D02*
X15800000Y-48800000D01*
X26100000Y-49300000D02*
X30000000Y-49300000D01*
X15900000Y-48800000D02*
X16000000Y-48900000D01*
X15600000Y-48700000D02*
X15700000Y-48700000D01*
X15300000Y-48400000D02*
X15600000Y-48700000D01*
X21400000Y-36000000D02*
X21800000Y-36000000D01*
X31100000Y-46900000D02*
X33600000Y-46900000D01*
X15800000Y-48800000D02*
X15900000Y-48800000D01*
X30000000Y-49300000D02*
X30700000Y-48600000D01*
X30700000Y-47300000D02*
X31100000Y-46900000D01*
X7100000Y-48400000D02*
X15300000Y-48400000D01*
X16000000Y-48900000D02*
X25700000Y-48900000D01*
X22200000Y-32200000D02*
X20400000Y-34000000D01*
%TO.N,IN_L_BIAS*%
X3807500Y-41170000D02*
X3800000Y-41200000D01*
X3800000Y-41200000D02*
X5800000Y-39200000D01*
X7400000Y-42800000D02*
X13800000Y-42800000D01*
X5200000Y-42300000D02*
X6900000Y-42300000D01*
X3871429Y-41128571D02*
X3900000Y-41100000D01*
X12500000Y-41200000D02*
X12300000Y-41200000D01*
X12300000Y-41200000D02*
X12307500Y-41170000D01*
X5800000Y-39200000D02*
X5800000Y-30300000D01*
X4000000Y-41100000D02*
X5200000Y-42300000D01*
X3900000Y-41100000D02*
X4000000Y-41100000D01*
X13000000Y-41700000D02*
X12500000Y-41200000D01*
X6900000Y-42300000D02*
X7400000Y-42800000D01*
X13000000Y-41700000D02*
X12820000Y-41700000D01*
%TO.N,IN_L_TIP*%
X30000000Y-8100000D02*
X30000000Y-6500000D01*
X7800000Y-30300000D02*
X30000000Y-8100000D01*
%TO.N,OUT_L_RC*%
X59800000Y-35700000D02*
X59100000Y-36400000D01*
X57200000Y-30300000D02*
X59100000Y-32200000D01*
X59100000Y-33400000D02*
X59800000Y-34100000D01*
X59800000Y-34100000D02*
X59800000Y-35700000D01*
X59100000Y-41200000D02*
X59142500Y-41170000D01*
X59100000Y-36400000D02*
X59100000Y-41200000D01*
X59100000Y-32200000D02*
X59100000Y-33400000D01*
%TO.N,+5V_FB*%
D38*
X97400000Y-32600000D02*
X97100000Y-32300000D01*
X97397500Y-32560000D02*
X97400000Y-32600000D01*
X97100000Y-32300000D02*
X95000000Y-32300000D01*
%TO.N,LED2_K*%
D36*
X36500000Y-71500000D02*
X40500000Y-67500000D01*
X97700000Y-63900000D02*
X102400000Y-68600000D01*
X90500000Y-55700000D02*
X90600000Y-55700000D01*
X90200000Y-55600000D02*
X90400000Y-55600000D01*
X78200000Y-46300000D02*
X87400000Y-55500000D01*
X48300000Y-63200000D02*
X66800000Y-44700000D01*
X74800000Y-42900000D02*
X76500000Y-44600000D01*
X97600000Y-63900000D02*
X97700000Y-63900000D01*
X67300000Y-42900000D02*
X74800000Y-42900000D01*
X97500000Y-63800000D02*
X97600000Y-63900000D01*
X40500000Y-67500000D02*
X42500000Y-67500000D01*
X102400000Y-68600000D02*
X106500000Y-68600000D01*
X66800000Y-43400000D02*
X67300000Y-42900000D01*
X90400000Y-55600000D02*
X90500000Y-55700000D01*
X76500000Y-44600000D02*
X78200000Y-44600000D01*
X106500000Y-74600000D02*
X106900000Y-75000000D01*
X90600000Y-55700000D02*
X93700000Y-58800000D01*
X66800000Y-44700000D02*
X66800000Y-43400000D01*
X47000000Y-63200000D02*
X48300000Y-63200000D01*
X90100000Y-55500000D02*
X90200000Y-55600000D01*
X93700000Y-60100000D02*
X97400000Y-63800000D01*
X97400000Y-63800000D02*
X97500000Y-63800000D01*
X87400000Y-55500000D02*
X90100000Y-55500000D01*
%TO.N,IN_R_BUF*%
X17400000Y-40400000D02*
X18200000Y-39600000D01*
X16600000Y-46900000D02*
X16900000Y-46600000D01*
X16900000Y-36000000D02*
X16900000Y-34700000D01*
X16900000Y-46600000D02*
X16900000Y-42400000D01*
X16900000Y-36000000D02*
X16855000Y-35995000D01*
X17400000Y-41900000D02*
X17400000Y-40400000D01*
X16900000Y-34700000D02*
X16855000Y-34725000D01*
X17300000Y-36000000D02*
X16900000Y-36000000D01*
X16567500Y-46870000D02*
X16600000Y-46900000D01*
X18200000Y-36900000D02*
X17300000Y-36000000D01*
X18200000Y-39600000D02*
X18200000Y-36900000D01*
X16900000Y-42400000D02*
X17400000Y-41900000D01*
%TO.N,OUT_R_RC*%
X66300000Y-34000000D02*
X65900000Y-34000000D01*
X63200000Y-38900000D02*
X62500000Y-39600000D01*
X70000000Y-30300000D02*
X66300000Y-34000000D01*
X65700000Y-34100000D02*
X63200000Y-36600000D01*
X60200000Y-42900000D02*
X59100000Y-44000000D01*
X65900000Y-34000000D02*
X65800000Y-34100000D01*
X62500000Y-41800000D02*
X61400000Y-42900000D01*
X61400000Y-42900000D02*
X60200000Y-42900000D01*
X59100000Y-44000000D02*
X59142500Y-44020000D01*
X65800000Y-34100000D02*
X65700000Y-34100000D01*
X63200000Y-36600000D02*
X63200000Y-38900000D01*
X62500000Y-39600000D02*
X62500000Y-41800000D01*
%TD*%
M02*
