M48
; DRILL file KiCad 10.0.6 date 2026-09-21T23:46:50
; FORMAT={-:-/ absolute / metric / decimal}
; #@! TF.CreationDate,2026-09-21T23:46:50-07:00
; #@! TF.GenerationSoftware,Kicad,Pcbnew,10.0.6
; #@! TF.FileFunction,MixedPlating,1,2
FMAT,2
METRIC
; #@! TA.AperFunction,Plated,PTH,ViaDrill
T1C0.300
; #@! TA.AperFunction,Plated,PTH,ComponentDrill
T2C0.800
; #@! TA.AperFunction,Plated,PTH,ComponentDrill
T3C0.900
; #@! TA.AperFunction,Plated,PTH,ComponentDrill
T4C1.000
; #@! TA.AperFunction,Plated,PTH,ComponentDrill
T5C1.100
; #@! TA.AperFunction,Plated,PTH,ComponentDrill
T6C1.400
; #@! TA.AperFunction,NonPlated,NPTH,ComponentDrill
T7C3.200
%
G90
G05
T1
X2.7Y-43.2
X3.3Y-45.4
X3.8Y-32.6
X4.3Y-38.5
X4.5Y-47.0
X5.2Y-36.3
X5.2Y-37.6
X5.5Y-44.2
X6.5Y-33.3
X6.5Y-36.3
X6.5Y-41.2
X6.5Y-42.9
X8.6Y-38.3
X8.6Y-50.3
X8.6Y-51.6
X9.0Y-39.4
X10.0Y-34.7
X10.0Y-44.0
X10.0Y-49.8
X10.9Y-33.8
X11.0Y-47.0
X12.3Y-36.3
X13.0Y-41.7
X13.1Y-27.5
X13.1Y-33.0
X13.5Y-40.7
X13.8Y-23.4
X13.8Y-25.2
X13.9Y-42.9
X14.0Y-35.0
X14.0Y-49.1
X14.3Y-51.6
X14.5Y-27.3
X14.9Y-37.9
X15.2Y-42.3
X15.3Y-39.7
X16.4Y-38.2
X16.4Y-41.4
X16.9Y-33.8
X17.4Y-37.6
X18.5Y-36.3
X18.8Y-37.7
X19.2Y-41.3
X19.5Y-38.2
X19.7Y-47.3
X20.1Y-43.3
X20.6Y-41.0
X21.8Y-28.2
X22.0Y-42.4
X22.0Y-49.6
X22.2Y-32.2
X22.4Y-36.9
X22.7Y-29.8
X22.7Y-47.3
X23.2Y-34.0
X23.3Y-42.8
X23.4Y-28.4
X23.8Y-36.6
X24.0Y-39.7
X24.2Y-44.0
X24.3Y-33.5
X24.3Y-42.9
X24.4Y-34.8
X25.6Y-33.3
X25.6Y-42.5
X25.6Y-45.2
X26.0Y-40.1
X26.5Y-47.3
X26.5Y-48.6
X26.6Y-34.9
X27.4Y-38.7
X28.8Y-42.9
X28.9Y-32.1
X30.7Y-47.3
X30.7Y-48.6
X31.1Y-42.5
X31.7Y-68.2
X32.7Y-60.8
X33.4Y-51.1
X34.3Y-52.9
X34.7Y-47.3
X35.2Y-52.0
X35.4Y-88.9
X35.9Y-49.1
X37.8Y-42.7
X38.1Y-88.8
X38.3Y-63.1
X38.3Y-67.5
X38.5Y-48.2
X40.2Y-62.1
X40.5Y-85.5
X40.9Y-48.3
X41.0Y-45.7
X41.0Y-69.9
X41.2Y-83.4
X41.3Y-37.9
X42.5Y-67.5
X42.7Y-42.5
X42.8Y-85.0
X45.6Y-93.6
X46.0Y-37.4
X46.8Y-37.5
X46.9Y-63.1
X46.9Y-79.1
X47.4Y-40.0
X48.3Y-89.3
X48.7Y-35.6
X48.7Y-79.1
X48.8Y-38.8
X48.8Y-64.4
X49.1Y-42.7
X50.0Y-62.9
X50.5Y-42.0
X50.6Y-37.5
X50.8Y-89.3
X50.9Y-45.3
X51.5Y-38.5
X51.5Y-42.9
X51.8Y-36.9
X51.8Y-71.4
X52.5Y-46.6
X52.6Y-63.1
X53.2Y-89.3
X53.3Y-57.3
X53.7Y-45.4
X54.0Y-39.6
X54.6Y-40.8
X54.9Y-29.3
X54.9Y-61.9
X55.0Y-38.2
X55.6Y-81.1
X55.8Y-27.9
X55.8Y-89.9
X55.9Y-62.7
X56.2Y-36.5
X57.3Y-61.3
X57.4Y-59.4
X58.3Y-40.0
X58.3Y-60.3
X58.3Y-78.3
X58.5Y-33.6
X58.5Y-52.1
X58.8Y-70.2
X58.9Y-66.1
X59.1Y-35.4
X59.5Y-46.2
X59.8Y-33.2
X60.3Y-44.0
X60.5Y-41.3
X60.5Y-42.3
X61.2Y-31.7
X61.4Y-16.6
X61.6Y-73.0
X61.7Y-21.3
X61.8Y-39.2
X62.0Y-69.8
X62.1Y-84.5
X62.5Y-36.9
X62.8Y-16.4
X62.9Y-60.1
X63.0Y-88.7
X63.4Y-41.2
X63.4Y-44.0
X63.4Y-65.5
X63.7Y-100.0
X63.8Y-38.0
X63.9Y-68.8
X64.0Y-21.4
X64.2Y-42.9
X64.3Y-82.3
X64.4Y-46.2
X64.7Y-36.0
X64.7Y-41.4
X64.8Y-80.0
X64.9Y-33.5
X65.0Y-72.9
X65.7Y-80.9
X66.1Y-44.1
X66.2Y-78.6
X66.5Y-58.8
X67.1Y-65.6
X67.3Y-32.1
X67.5Y-79.1
X67.8Y-46.3
X68.6Y-27.9
X68.8Y-63.3
X69.6Y-26.9
X69.7Y-42.3
X69.7Y-43.6
X70.0Y-34.9
X72.0Y-37.4
X72.2Y-86.1
X72.3Y-71.5
X72.8Y-34.9
X73.4Y-73.5
X75.4Y-83.8
X78.2Y-44.6
X78.2Y-46.3
X79.1Y-74.1
X79.1Y-79.0
X79.2Y-66.3
X80.6Y-65.0
X81.7Y-67.0
X84.3Y-36.9
X85.2Y-32.4
X86.9Y-32.7
X88.4Y-34.2
X89.7Y-35.4
X90.9Y-34.2
X90.9Y-68.6
X90.9Y-80.6
X92.3Y-41.8
X92.8Y-24.6
X93.4Y-32.1
X93.5Y-25.0
X93.7Y-58.8
X93.7Y-60.1
X94.1Y-37.0
X95.2Y-35.6
X96.3Y-63.6
X96.4Y-25.8
X96.6Y-34.6
X98.2Y-63.5
X98.6Y-33.1
X98.9Y-29.5
X99.5Y-35.6
X99.7Y-75.2
X99.7Y-77.2
X99.8Y-83.8
X102.6Y-93.0
X102.6Y-95.4
X103.6Y-76.8
X104.7Y-32.4
X106.5Y-68.6
X106.5Y-74.6
X107.2Y-32.1
X109.2Y-32.4
X109.9Y-25.0
X110.5Y-28.4
X110.7Y-32.4
X112.4Y-24.8
X112.8Y-27.8
X112.9Y-30.1
X113.1Y-24.6
X113.4Y-32.4
X113.9Y-36.1
X113.9Y-38.8
X114.5Y-68.6
X114.5Y-69.9
X114.7Y-25.8
X114.9Y-27.0
X116.0Y-58.7
X116.0Y-60.2
X118.4Y-26.5
X119.1Y-25.0
X127.2Y-25.3
X129.4Y-25.0
X130.1Y-81.3
X130.4Y-85.1
X131.3Y-25.0
T2
X5.79Y-30.29
X7.79Y-30.29
X12.18Y-30.29
X14.18Y-30.29
X18.57Y-30.29
X20.57Y-30.29
X24.96Y-30.29
X26.96Y-30.29
X50.79Y-30.29
X52.79Y-30.29
X57.18Y-30.29
X59.18Y-30.29
X63.57Y-30.29
X65.57Y-30.29
X69.96Y-30.29
X71.96Y-30.29
X87.44Y-40.84
X89.94Y-40.84
X95.13Y-40.84
X97.63Y-40.84
X102.82Y-40.84
X105.32Y-40.84
X110.51Y-40.84
X113.01Y-40.84
X118.19Y-40.84
X120.69Y-40.84
T3
X14.0Y-71.5
X16.54Y-71.5
X34.0Y-71.5
X36.54Y-71.5
X54.0Y-71.5
X56.54Y-71.5
X74.0Y-71.5
X76.54Y-71.5
X94.0Y-71.5
X96.54Y-71.5
T4
X12.0Y-65.0
X12.0Y-97.5
X14.5Y-65.0
X14.5Y-97.5
X17.0Y-65.0
X28.0Y-97.5
X30.5Y-97.5
X32.0Y-65.0
X34.5Y-65.0
X37.0Y-65.0
X44.0Y-97.5
X46.5Y-97.5
X52.0Y-65.0
X54.5Y-65.0
X57.0Y-65.0
X60.0Y-97.5
X62.5Y-97.5
X72.0Y-65.0
X74.5Y-65.0
X76.0Y-97.5
X77.0Y-65.0
X78.5Y-97.5
X92.0Y-65.0
X94.5Y-65.0
X97.0Y-65.0
X112.0Y-65.0
X114.5Y-65.0
X117.0Y-65.0
X118.0Y-68.0
X118.0Y-70.54
X118.0Y-73.08
X118.0Y-75.62
X118.0Y-78.16
X118.0Y-80.7
X118.0Y-83.24
X118.0Y-85.78
X133.24Y-68.0
X133.24Y-70.54
X133.24Y-73.08
X133.24Y-75.62
X133.24Y-78.16
X133.24Y-80.7
X133.24Y-83.24
X133.24Y-85.78
X137.46Y-54.0
X137.46Y-65.0
X140.0Y-54.0
X140.0Y-65.0
X142.54Y-54.0
X142.54Y-65.0
T5
X24.0Y-76.0
X24.0Y-91.24
X26.54Y-76.0
X26.54Y-91.24
X29.08Y-76.0
X29.08Y-91.24
X31.62Y-76.0
X31.62Y-91.24
X34.16Y-76.0
X34.16Y-91.24
X36.7Y-76.0
X36.7Y-91.24
X39.24Y-76.0
X39.24Y-91.24
X41.78Y-76.0
X41.78Y-91.24
X44.32Y-76.0
X44.32Y-91.24
X46.86Y-76.0
X46.86Y-91.24
X49.4Y-76.0
X49.4Y-91.24
X51.94Y-76.0
X51.94Y-91.24
X54.48Y-76.0
X54.48Y-91.24
X57.02Y-76.0
X57.02Y-91.24
X59.56Y-76.0
X59.56Y-91.24
X62.1Y-76.0
X62.1Y-91.24
X64.64Y-76.0
X64.64Y-91.24
X67.18Y-76.0
X67.18Y-91.24
X69.72Y-76.0
X69.72Y-91.24
X72.26Y-76.0
X72.26Y-91.24
T6
X13.77Y-6.5
X13.77Y-12.85
X13.77Y-19.2
X30.0Y-6.5
X30.0Y-12.85
X30.0Y-19.2
X45.77Y-6.5
X45.77Y-12.85
X45.77Y-19.2
X62.0Y-6.5
X62.0Y-12.85
X62.0Y-19.2
T7
X4.0Y-4.0
X4.0Y-98.0
X146.0Y-4.0
X146.0Y-98.0
T4
X129.3Y-9.5G85X129.3Y-11.5
G05
X135.0Y-7.5G85X133.0Y-7.5
G05
X135.0Y-13.5G85X133.0Y-13.5
G05
T5
X9.7Y-57.85G85X9.7Y-57.15
G05
X19.3Y-57.85G85X19.3Y-57.15
G05
X29.7Y-57.85G85X29.7Y-57.15
G05
X39.3Y-57.85G85X39.3Y-57.15
G05
X49.7Y-57.85G85X49.7Y-57.15
G05
X59.3Y-57.85G85X59.3Y-57.15
G05
X69.7Y-57.85G85X69.7Y-57.15
G05
X79.3Y-57.85G85X79.3Y-57.15
G05
X89.7Y-57.85G85X89.7Y-57.15
G05
X99.3Y-57.85G85X99.3Y-57.15
G05
X109.7Y-57.85G85X109.7Y-57.15
G05
X119.3Y-57.85G85X119.3Y-57.15
G05
M30
